<?xml version="1.0" encoding="utf-8"?>
<!-- Generator: Adobe Illustrator 23.0.3, SVG Export Plug-In . SVG Version: 6.00 Build 0)  -->
<svg version="1.1" id="Layer_1" xmlns="http://www.w3.org/2000/svg" xmlns:xlink="http://www.w3.org/1999/xlink" x="0px" y="0px"
	 viewBox="0 0 1200 1200" style="enable-background:new 0 0 1200 1200;" xml:space="preserve">
<style type="text/css">
	.st0{fill:#FFB600;}
	.st1{fill:#464749;}
	.st2{fill:#FFAEA6;}
	.st3{fill:#0CADAD;}
	.st4{fill:#30343F;}
	.st5{fill:#FFFFFF;}
	.st6{opacity:0.41;fill:#FFFFFF;enable-background:new    ;}
	.st7{fill:#F05924;}
	.st8{fill:#241352;}
	.st9{opacity:0.28;}
	.st10{opacity:0.12;}
	.st11{fill:#6042DC;}
	.st12{fill:#241352;stroke:#000000;stroke-miterlimit:10;}
	.st13{fill:#FF7180;}
	.st14{fill:#FF947E;}
</style>
<g>
	<g>
		<path class="st0" d="M1019.6,389.1c-8.9,8.3-12.5,21.3-8.4,32.9c4.1,11.6,15.6,19,27.7,19.5c26.8,1.1,40.4-32.6,22.3-51.5
			c-9.6-10-24.7-13.9-38.2-11.8c-1.4,0.2-1.1,2.6,0.3,2.5c13.2-1.2,27.7,1.9,36.9,12c10.2,11.2,8.7,28.8-2.1,39.1
			c-10.9,10.4-29.4,9-39.5-1.9c-10.2-11.1-9-29.7,1.8-40C1021,389.5,1020.2,388.6,1019.6,389.1L1019.6,389.1z"/>
	</g>
</g>
<g>
	<path class="st1" d="M181.4,265.5c-12.9-5.8-28.8-4.5-40.5,3.4c-11.7,7.9-18.9,22.1-18.4,36.3c0.4,11.1,4.9,23.7-2.2,32.2
		c-5.4,6.6-15.2,7.2-22.9,10.8c-14.8,6.7-22.2,26.3-15.5,41.1c3.7,8,10.9,15.4,9.5,24.1c-0.9,5.6-5.4,10.1-10.3,12.9
		c-4.9,2.8-10.5,4.4-15.6,7c-18.7,9.1-30,30.4-29.5,51.1s12,40.5,28.4,53.3c16.4,12.8,37.3,19,58.1,19.8
		c20.8,0.8,42.6-4.1,58.4-17.6c11.9-10.1,19.7-24.3,25.4-38.8c10.9-27.6,15.3-57.8,12.8-87.4c-2.6-30.7-12.6-60.5-14.7-91.3
		c-0.7-10.3-0.6-20.8-2.9-30.8c-2.3-10.1-7.4-20-16.3-25.4"/>
</g>
<g>
	<path class="st1" d="M176.6,269.4c11.8-24.6,35.3-43.2,62-49.1c16.4-3.6,34.3-2.4,48.7,6.2c14.4,8.6,24.3,25.4,22.1,42
		c-1.4,10.3-6.9,19.4-10.5,29.2c-3.5,9.7-4.7,21.6,1.9,29.6c5.9,7.2,16,9,24.1,13.6c11.5,6.6,18.7,20.1,18,33.3
		c-0.8,13.3-9.5,25.8-21.7,31c12.1,1.4,23.5,8.2,30.5,18.1s9.5,23,6.7,34.8c-4,17-17.8,30-32.7,39.2c-20.7,12.8-44.6,20.2-68.9,21.3
		c-25.8,1.2-54.3-6.5-68.3-28.1c-9.2-14.2-10.6-31.9-11.6-48.8c-3.1-51-5.3-102.1-7.4-153.1c-0.3-8.2-0.7-16.6,1.3-24.5"/>
</g>
<path class="st2" d="M263.3,499.9l230.9,86.6l-22-93.2l60.1-15.3c0,0,64.6,182.3,19.7,187.2c-78.5,8.5-197.4-22.5-197.4-22.5
	L263.3,499.9z"/>
<path class="st3" d="M243.1,897.7c0,0,278.9-304.5,467.3-238s267.8,376.6,267.8,376.6l-150-2.4c0,0-118.5-234.2-176.3-225.1
	c-57.8,9.1-236.3,232-236.3,232L243.1,897.7z"/>
<path class="st0" d="M331.4,712.9l11.6,178.6c-60.1,73.9-269.5-21.7-269.5-21.7L71,795.2l-4.9-177.9c4.8-70.9,70.6-105.6,70.6-105.6
	c27.2-13.6,68.7-21.3,106.1-19.4c39,1.9,48.7,20.6,64.7,56.2C320.6,577.2,355.8,624.1,331.4,712.9z"/>
<path class="st3" d="M112.6,903.5c0,0-32,130.3,65.6,150.8c97.6,20.5,456.4-27.5,549.9-19.3s359.3,23.7,359.3,23.7l19.5-154.7
	c0,0-413.7-19.8-460.4-8.2C599.7,907.5,112.6,903.5,112.6,903.5z"/>
<g>
	<path class="st2" d="M159.4,675.7c0,0-29.3,172.4,12,168.2c135.7-14,216.5-15.8,216.5-15.8l22.5,46.7c0.5,8-257,81.7-298.4,57.3
		c-29.2-17.2-75.8-63.6-54.6-202.1l5-46.4L159.4,675.7z"/>
</g>
<polygon class="st4" points="281.9,923.2 281.6,911.7 451.9,887.6 497.1,729.5 685.8,724.9 634.9,896.1 "/>
<path class="st5" d="M588.1,804.4c0.2,7.7-5.9,14.1-13.6,14.3c-7.7,0.2-14.1-5.9-14.3-13.6s5.9-14.1,13.6-14.3
	C581.5,790.6,587.9,796.7,588.1,804.4z"/>
<path class="st6" d="M593.7,804.3c0.3,10.8-8.3,19.8-19.1,20c-10.8,0.3-19.8-8.3-20-19.1c-0.3-10.8,8.3-19.8,19.1-20
	C584.4,785,593.4,793.5,593.7,804.3z"/>
<path class="st0" d="M84.7,561.3c0,0-31.7,30.4-38.7,145.4l122.5-13.6C168.5,693.2,188.9,497.3,84.7,561.3z"/>
<g>
	<path class="st5" d="M984.2,215.4c0,0,43.4,97.5,55.5,92.4c12.1-5.1,124.3-74.7,124.3-74.7s-46-87.3-55.6-92.4
		C1098.9,135.6,984.2,215.4,984.2,215.4z"/>
	<g>
		<g>
			<g>
				<path class="st7" d="M1108.4,140.7c0.2,0.1-0.6,2.6-2.1,7.1c-1.5,4.5-3.8,11-6.7,18.9c-5.8,15.9-13.9,37.9-23,62.1
					c-0.2,0.6-0.4,1.2-0.7,1.8l-0.4,1l-1.1-0.2c-25.1-4.1-47.8-7.9-64.1-10.8c-8.2-1.4-14.8-2.7-19.3-3.6c-4.5-0.9-7-1.5-7-1.6
					c0-0.2,2.6,0.1,7.2,0.7s11.2,1.5,19.4,2.7c16.4,2.4,39.1,6,64.2,10l-1.4,0.8c0.2-0.6,0.4-1.1,0.7-1.8
					c9.1-24.2,17.5-46.1,23.7-61.9c3.1-7.9,5.6-14.3,7.5-18.6C1107.2,143.1,1108.3,140.7,1108.4,140.7z"/>
			</g>
		</g>
	</g>
	<g>
		<g>
			<g>
				<path class="st7" d="M1025.4,296.4c-0.3-0.1,0.2-4.1,1.6-10.6c1.3-6.5,3.4-15.4,6.1-25.1c2.7-9.7,5.4-18.5,7.5-24.7
					c2.2-6.3,3.7-10.1,4-9.9c0.7,0.2-3.8,15.9-9,35.4C1030.3,280.8,1026.2,296.6,1025.4,296.4z"/>
			</g>
		</g>
	</g>
	<g>
		<g>
			<g>
				<path class="st7" d="M1156.6,213.8c-0.1,0.7-15.7-1.2-34.8-4.2c-19.1-3-34.5-6.1-34.4-6.8s15.7,1.2,34.8,4.2
					C1141.3,210,1156.7,213,1156.6,213.8z"/>
			</g>
		</g>
	</g>
</g>
<path class="st2" d="M146.1,320.2l2.8,36.5c0,0-31.1,4.2-22.2,32.5s30.1,15.9,30.1,15.9s5.3,72.6,79.6,49.6
	c59.2-18.3,55.5-94.9,48-160.2c-2.9-25.3-26.8-42.7-51.8-37.8l-44.7,8.7C162.1,270.4,144.1,294,146.1,320.2z"/>
<path class="st2" d="M148.9,387l20,106.8c4.5,24.1,28.2,39.5,52.1,33.8l0,0c22.1-5.3,36.2-26.8,32.2-49.2l-10.9-61.2L148.9,387z"/>
<g>
	<g>
		<g>
			<path class="st8" d="M231.1,388.3c0.2-0.1,0.4,0.1,0.8,0.4c0.4,0.3,0.9,0.6,1.5,0.6c0.6,0,1.4-0.3,2-1c0.7-0.7,1.1-1.6,1.4-3.1
				c0.6-2.8,0.2-6.5-0.2-10.9c-0.4-4.4-0.8-9.2-1.1-14.2c-1.3-20.2-1.1-36.7,0.3-36.8c1.4-0.1,3.6,16.2,4.9,36.4
				c0.3,5,0.6,9.9,0.7,14.3c0.1,4.3,0.3,8.6-1,12.3c-0.3,0.9-0.7,1.7-1.3,2.5c-0.6,0.8-1.2,1.4-1.9,1.9c-1.4,0.9-3.1,1.1-4.3,0.6
				c-1.2-0.5-1.7-1.4-1.8-1.9C230.9,388.6,230.9,388.3,231.1,388.3z"/>
		</g>
	</g>
</g>
<g>
	<g>
		<g>
			<path class="st8" d="M255.2,447.3c0.4,0.5-2.5,3.9-8.6,7.5c-3,1.8-6.9,3.6-11.4,5c-4.5,1.4-9.6,2.3-15.1,2.4
				c-5.5,0.1-10.6-0.6-15.2-1.8c-4.6-1.2-8.5-2.8-11.6-4.5c-6.3-3.4-9.3-6.6-8.9-7.1c0.4-0.6,4.1,1.4,10.4,3.7
				c6.2,2.3,15.2,4.6,25.2,4.4s18.9-2.9,25-5.5C251.1,448.9,254.8,446.7,255.2,447.3z"/>
		</g>
	</g>
</g>
<g>
	<g>
		<g>
			<path class="st8" d="M240.7,403.2c0,0-0.1,0.1-0.2,0.3c-0.2,0.2-0.4,0.5-0.8,0.9c-0.7,0.7-1.9,1.7-3.4,2.6
				c-1.6,0.9-3.7,1.8-6.1,2.1s-5.2,0.3-7.9-0.5c-2.7-0.9-5-2.4-6.7-4.1c-1.7-1.7-2.9-3.6-3.7-5.3c-0.8-1.7-1.1-3.1-1.3-4.2
				c-0.1-0.5-0.1-0.9-0.1-1.2c0-0.3,0-0.4,0-0.4c0.1,0,0.1,2.3,1.7,5.6c0.8,1.6,2,3.4,3.7,5.1c1.7,1.7,3.9,3.1,6.5,4
				c2.6,0.8,5.3,0.9,7.6,0.6c2.4-0.4,4.4-1.1,6-2C239.2,405,240.6,403.1,240.7,403.2z"/>
		</g>
	</g>
</g>
<g>
	<g>
		<g>
			<path class="st8" d="M146.5,392.8c0,0.4-0.4,0.7-1.3,0.9c-0.9,0.2-2.2,0.3-3.9-0.2c-0.8-0.3-1.7-0.7-2.6-1.4
				c-0.9-0.8-1.6-1.8-2.1-3c-0.5-1.2-0.7-2.8-0.2-4.4c0.2-0.8,0.6-1.6,1.3-2.3c0.6-0.7,1.4-1.2,2.3-1.5c1.2-0.5,2.5-0.5,3.8-0.2
				c1.3,0.3,2.6,1.2,3.2,2.4l-4.4,2.3c-2.3-6-3.3-10.7-2.2-11.1c1.1-0.5,3.9,3.4,6.8,9.1l0,0l-4.4,2.3c0,0,0,0,0,0c0,0,0,0,0,0
				s0,0,0,0s-0.1,0-0.1,0c-0.1,0-0.4,0-0.7,0.1c-0.2,0.1-0.3,0.1-0.3,0.2c0,0-0.1,0.2-0.2,0.3c-0.1,0.3-0.2,0.8-0.1,1.3
				c0.1,0.5,0.3,1,0.6,1.4c0.3,0.4,0.7,0.8,1.1,1.2c0.9,0.7,1.8,1.1,2.5,1.5C146.1,392.1,146.5,392.4,146.5,392.8z"/>
		</g>
	</g>
</g>
<g>
	<g>
		<g>
			<path class="st8" d="M260.9,341.5c-1.4,0.3-3.1-2-3.9-5.3c-0.7-3.2-0.2-6.1,1.2-6.4s3.1,2,3.9,5.3
				C262.8,338.4,262.3,341.2,260.9,341.5z"/>
		</g>
	</g>
</g>
<g>
	<g>
		<g>
			<path class="st8" d="M197.9,347.4c-1.4,0.4-3.2-1.9-4.1-5.1c-0.9-3.2-0.5-6.2,0.9-6.5c1.4-0.4,3.2,1.9,4.1,5.1
				C199.7,344.1,199.3,347,197.9,347.4z"/>
		</g>
	</g>
</g>
<g>
	<g>
		<g>
			<path class="st8" d="M203.8,320.8c-0.2,0.7-1.2,1.1-2.5,1.5c-1.4,0.3-3,0.7-4.8,1.2c-1.8,0.5-3.4,1-4.8,1.4
				c-1.3,0.3-2.4,0.5-2.9,0c-0.5-0.5-0.3-1.7,0.8-3c1.1-1.3,3-2.7,5.5-3.4c2.5-0.6,4.9-0.4,6.5,0.2
				C203.2,319.2,204,320.1,203.8,320.8z"/>
		</g>
	</g>
</g>
<g>
	<g>
		<g>
			<path class="st8" d="M268,310.6c-0.3,0.7-1.4,0.9-2.9,1.1c-1.5,0.1-3.4,0.2-5.6,0.4c-2.1,0.2-4,0.5-5.5,0.6
				c-1.5,0.1-2.6,0.1-3-0.6c-0.4-0.6,0.2-1.7,1.6-2.8c1.4-1.1,3.8-2.1,6.5-2.4s5.2,0.4,6.8,1.2C267.6,309,268.3,310,268,310.6z"/>
		</g>
	</g>
</g>
<g>
	<path class="st1" d="M148.9,356.7c20.8-20.2,26.9-53.9,32.5-82.4c19.2,14,45.7,17.4,67.8,8.8c7,8.2,15.1,15.3,24.2,21.1
		c2.6,1.6,5.6,3.3,8.5,2.4c3.5-1,5-5,5.9-8.6c2.6-11.3,2.8-23.5-1.2-34.4c-4-10.9-12.2-20.6-23.1-24.8c-11.6-4.5-24.7-2.5-36.7,0.6
		c-18.1,4.7-35.6,11.9-51.8,21.4c-15.9,9.3-31.1,21.6-37.9,38.7c-6.7,17.1-6.7,50.4,9.5,59.1"/>
</g>
<g class="st9">
	<g>
		<g>
			<path class="st8" d="M233.6,407.2c0.1,0.7-0.8,1.5-2.4,2c-1.6,0.5-4,0.6-6.5,0.1c-2.5-0.5-4.6-1.6-5.9-2.8
				c-1.3-1.1-1.8-2.2-1.4-2.8c0.4-0.6,1.5-0.7,3-0.5c1.5,0.2,3.4,0.6,5.4,1c2.1,0.4,3.9,0.8,5.4,1.3
				C232.5,406,233.5,406.5,233.6,407.2z"/>
		</g>
	</g>
</g>
<g class="st10">
	<g>
		<g>
			<path class="st8" d="M207.7,373.3c0.3,1.4-7,3.9-16.4,4.3c-9.4,0.4-16.8-1.4-16.7-2.8c0.1-1.5,7.5-2,16.5-2.4
				C200.1,372,207.5,371.9,207.7,373.3z"/>
		</g>
	</g>
</g>
<g class="st10">
	<g>
		<g>
			<path class="st8" d="M286.3,366.9c0.3,1.4-6.1,3.9-14.5,4.3c-8.3,0.4-15-1.4-14.8-2.8c0.1-1.5,6.6-2,14.6-2.4
				C279.5,365.6,286,365.5,286.3,366.9z"/>
		</g>
	</g>
</g>
<g>
	<g>
		<g>
			<path class="st11" d="M148,453.4c0,0,0-0.2-0.1-0.5c0-0.4,0-0.9,0-1.5c0-1.4,0-3.3-0.1-5.6c-0.1-4.8-0.2-11.3-0.6-18.5
				c-0.4-7.2-0.9-13.8-1.3-18.5c-0.2-2.3-0.4-4.2-0.5-5.6c-0.1-0.6-0.1-1.1-0.1-1.5c0-0.4,0-0.5,0-0.5s0.1,0.2,0.1,0.5
				c0.1,0.4,0.1,0.9,0.2,1.5c0.2,1.3,0.4,3.2,0.7,5.6c0.5,4.7,1.1,11.3,1.5,18.5c0.4,7.2,0.5,13.8,0.4,18.6c0,2.4-0.1,4.3-0.1,5.6
				c0,0.6-0.1,1.1-0.1,1.5C148.1,453.2,148,453.4,148,453.4z"/>
		</g>
	</g>
</g>
<path class="st0" d="M271.4,499.1c-20.1-8,134.4,49.4,134.4,49.4l-15.7,105.7l-58.8-19.3L271.4,499.1z"/>
<g>
	<path class="st1" d="M179.4,259.9c4.9-7.3,6.5-16.8,4.3-25.3c-1.8-7-7.1-14-14.3-14.4c-4.1-0.2-8.1,1.8-11.1,4.6
		c-7.5,6.9-9.4,19.1-4.4,28c5,8.9,16.4,13.6,26.1,10.8"/>
</g>
<path class="st4" d="M1102.7,937c0,0,50.3-72.1,44.1-44.8s-57.2,148.5-57.2,148.5L1102.7,937z"/>
<path class="st2" d="M373.6,828c0,0,66.4-20.8,64.1-14c-2.3,6.8-13.6,7.1-24.9,18.2c0,0,74.3,0.8,70.7,6.9
	c-3.6,6.1-51.9,7.7-52.2,8.7s52.9,2.3,51.7,8c-1.2,5.7-50.6,4.3-50.6,4.3s45.8,4.9,44.8,11s-43.1,1.7-43.1,1.7s35.3,4,34.4,9.6
	c-0.6,3.4-103.4,4.1-103.7,6.6C364.8,890.3,373.6,828,373.6,828"/>
<path class="st2" d="M476.5,499.1c0,0-40.3-56.4-33.1-56.4s10.9,10.6,24.9,17.9c0,0-22.3-70.5-15.4-69s23.4,46.7,24.4,46.7
	c1.1,0-14.2-50.8-8.5-51.4s19.8,46.5,19.8,46.5s-9.6-44.8-3.5-45.8c6.1-1,15,40.3,15,40.3s-7.1-34.7-1.6-35.5
	c3.4-0.5,33.8,85.5,33.8,85.5C531.4,477.9,476.5,499.1,476.5,499.1"/>
<g>
	<g>
		<g>
			<path class="st4" d="M104.5,654.2c0.2,0,0.5,0.7,0.8,2c0.3,1.3,0.8,3.3,0.6,5.9c-0.1,1.3-0.3,2.7-1,4.2c-0.7,1.5-1.7,2.8-3.2,3.9
				c-1.5,1.1-3.6,1.8-5.7,1.3c-1-0.2-2-0.7-2.9-1.3c-0.8-0.6-1.6-1.3-2.2-2c-1.3-1.4-2.4-2.8-3.6-3.7c-1.2-0.9-2.6-1.5-4-1.7
				s-2.8,0-3.9,0.4c-1.2,0.4-2.2,1.1-3,1.8c-1.6,1.5-2.3,3.3-2.7,4.5c-0.3,1.2-0.4,2-0.6,2c-0.2,0-0.5-0.7-0.4-2.2
				c0.1-1.4,0.6-3.6,2.3-5.6c0.9-1,2.1-2,3.5-2.6c1.5-0.6,3.2-0.9,5-0.7c1.8,0.2,3.7,0.8,5.3,2c1.6,1.2,2.7,2.7,3.9,4
				c1.2,1.3,2.4,2.3,3.7,2.6c1.3,0.3,2.7-0.1,3.8-0.8s2.1-1.8,2.6-2.9c0.6-1.1,0.9-2.3,1.1-3.4c0.3-2.3,0.2-4.2,0.2-5.5
				C104.3,655,104.3,654.2,104.5,654.2z"/>
		</g>
	</g>
</g>
<g>
	<g>
		<g>
			<path class="st4" d="M140.8,622.9c-0.1-0.1,0.3-0.8,1.3-1.7c1-1,2.4-2.4,4.7-3.6c1.1-0.6,2.5-1.2,4.1-1.3c1.6-0.2,3.3,0,5,0.7
				c1.7,0.7,3.4,2.1,4.1,4.2c0.4,1,0.4,2.1,0.4,3.1s-0.3,2-0.6,2.9c-0.5,1.8-1.1,3.5-1.3,5c-0.2,1.5,0.1,3,0.6,4.3
				c0.6,1.3,1.4,2.4,2.4,3.2c1,0.8,2,1.3,3.1,1.6c2.1,0.6,4,0.3,5.2-0.1c1.2-0.3,1.9-0.7,2-0.5c0.1,0.1-0.4,0.8-1.6,1.5
				c-1.2,0.7-3.4,1.4-6,0.9c-1.3-0.2-2.7-0.7-4-1.7c-1.3-1-2.4-2.3-3.2-3.9c-0.8-1.6-1.2-3.5-1-5.5c0.2-2,0.9-3.7,1.4-5.4
				c0.5-1.7,0.7-3.3,0.3-4.5c-0.4-1.3-1.4-2.3-2.7-2.8c-1.2-0.6-2.6-0.8-3.8-0.8c-1.2,0.1-2.4,0.4-3.5,0.9c-2.1,0.9-3.7,2-4.8,2.7
				C141.6,622.6,140.9,623,140.8,622.9z"/>
		</g>
	</g>
</g>
<g>
	<g>
		<g>
			<path class="st4" d="M215.7,646.5c-0.1,0.1-0.8-0.3-1.9-1.1c-1-0.9-2.6-2.2-4-4.4c-0.7-1.1-1.4-2.4-1.7-4
				c-0.3-1.6-0.3-3.3,0.3-5.1c0.6-1.7,1.8-3.6,3.8-4.5c1-0.4,2.1-0.6,3.1-0.7c1,0,2,0.1,3,0.3c1.9,0.4,3.6,0.8,5.1,0.9
				c1.5,0.1,2.9-0.3,4.2-1c1.2-0.7,2.2-1.6,3-2.6c0.7-1,1.1-2.2,1.3-3.2c0.4-2.2-0.1-4-0.5-5.2c-0.5-1.2-0.9-1.8-0.7-2
				c0.1-0.1,0.8,0.3,1.6,1.5c0.8,1.2,1.6,3.2,1.5,5.9c-0.1,1.3-0.5,2.8-1.3,4.2c-0.8,1.4-2,2.6-3.6,3.5c-1.5,0.9-3.4,1.5-5.4,1.5
				c-2,0-3.8-0.5-5.5-0.9c-1.7-0.3-3.3-0.4-4.6,0.1c-1.2,0.5-2.1,1.6-2.6,2.9c-0.5,1.3-0.6,2.7-0.4,3.9c0.2,1.2,0.6,2.4,1.2,3.4
				c1.1,2,2.3,3.5,3.1,4.6C215.4,645.7,215.9,646.3,215.7,646.5z"/>
		</g>
	</g>
</g>
<g>
	<g>
		<g>
			<path class="st4" d="M268.5,728c0.1,0.1-0.4,0.7-1.4,1.6c-1,0.9-2.6,2.2-5,3.2c-1.2,0.5-2.5,1-4.2,1c-1.6,0.1-3.3-0.2-5-1.1
				c-1.6-0.8-3.2-2.4-3.8-4.5c-0.3-1-0.3-2.1-0.1-3.2c0.1-1,0.4-2,0.8-2.9c0.7-1.8,1.4-3.4,1.7-4.9c0.3-1.5,0.1-3-0.3-4.3
				c-0.5-1.3-1.2-2.5-2.1-3.3c-0.9-0.9-1.9-1.5-3-1.8c-2.1-0.7-4-0.6-5.2-0.3c-1.3,0.3-2,0.6-2.1,0.4c-0.1-0.1,0.4-0.8,1.8-1.4
				c1.3-0.6,3.4-1.1,6.1-0.5c1.3,0.3,2.7,0.9,3.9,2c1.2,1,2.3,2.4,2.9,4.1c0.7,1.7,0.9,3.6,0.6,5.6c-0.4,1.9-1.1,3.7-1.7,5.3
				c-0.6,1.7-0.9,3.2-0.6,4.5c0.3,1.3,1.3,2.3,2.4,3c1.2,0.7,2.5,1,3.8,1c1.2,0,2.5-0.3,3.5-0.6c2.2-0.7,3.8-1.7,5-2.4
				C267.7,728.2,268.4,727.9,268.5,728z"/>
		</g>
	</g>
</g>
<g>
	<g>
		<g>
			<path class="st4" d="M372.9,579.8c0.1-0.2,0.8,0.1,2,0.8c1.2,0.7,2.9,1.7,4.7,3.6c0.9,0.9,1.8,2.1,2.4,3.6c0.6,1.5,0.9,3.2,0.7,5
				c-0.2,1.8-1.1,3.8-3,5.1c-0.9,0.6-1.9,1-2.9,1.2c-1,0.2-2,0.2-3,0.2c-1.9,0-3.7-0.2-5.2,0.1c-1.5,0.2-2.8,0.9-3.9,1.8
				c-1.1,0.9-1.9,2-2.4,3.1c-0.5,1.1-0.7,2.3-0.7,3.4c0,2.2,0.8,4,1.5,5c0.7,1.1,1.2,1.7,1.1,1.8c-0.1,0.1-0.9-0.2-1.9-1.2
				c-1-1-2.2-2.9-2.5-5.5c-0.1-1.3,0-2.8,0.5-4.3c0.6-1.5,1.5-3,2.9-4.1c1.3-1.2,3.1-2.1,5.1-2.4c1.9-0.3,3.8-0.2,5.6-0.2
				c1.8,0,3.3-0.2,4.5-1c1.1-0.7,1.8-2,2-3.3c0.2-1.3,0.1-2.7-0.3-3.9c-0.4-1.2-1.1-2.2-1.8-3.1c-1.4-1.8-2.9-3-3.9-3.9
				C373.4,580.5,372.8,579.9,372.9,579.8z"/>
		</g>
	</g>
</g>
<g>
	<g>
		<g>
			<path class="st4" d="M201.5,794.6c0.1,0.1-0.4,0.7-1.4,1.6c-1,0.9-2.6,2.2-4.9,3.2c-1.2,0.5-2.5,1-4.2,1c-1.6,0.1-3.3-0.2-5-1.1
				c-1.6-0.8-3.2-2.4-3.8-4.5c-0.3-1-0.3-2.1-0.1-3.2c0.1-1,0.4-2,0.8-2.9c0.7-1.8,1.4-3.4,1.7-4.9c0.3-1.5,0.1-3-0.3-4.3
				c-0.5-1.3-1.2-2.5-2.1-3.3c-0.9-0.9-1.9-1.5-3-1.8c-2.1-0.7-4-0.6-5.2-0.3c-1.3,0.3-2,0.6-2.1,0.4c-0.1-0.1,0.4-0.8,1.8-1.4
				c1.3-0.6,3.4-1.1,6.1-0.5c1.3,0.3,2.7,0.9,3.9,2c1.2,1,2.3,2.4,2.9,4.1c0.7,1.7,0.9,3.6,0.6,5.6c-0.4,1.9-1.1,3.7-1.7,5.3
				c-0.6,1.7-0.9,3.2-0.6,4.5c0.3,1.3,1.3,2.3,2.4,3c1.2,0.7,2.5,1,3.8,1c1.2,0,2.5-0.3,3.5-0.6c2.2-0.7,3.8-1.7,5-2.4
				C200.7,794.8,201.4,794.4,201.5,794.6z"/>
		</g>
	</g>
</g>
<g>
	<g>
		<g>
			<path class="st4" d="M293.5,670.8c-0.1,0.1-0.7-0.4-1.7-1.3c-0.9-1-2.3-2.5-3.5-4.8c-0.6-1.2-1.1-2.5-1.2-4.1
				c-0.1-1.6,0.1-3.3,0.9-5c0.8-1.7,2.2-3.3,4.3-4c1-0.3,2.1-0.4,3.1-0.3c1,0.1,2,0.4,2.9,0.7c1.8,0.6,3.5,1.3,5,1.5
				c1.5,0.2,3,0,4.3-0.5s2.4-1.3,3.3-2.3c0.8-0.9,1.4-2,1.7-3c0.6-2.1,0.4-4,0.1-5.2c-0.3-1.3-0.6-1.9-0.5-2
				c0.1-0.1,0.8,0.4,1.4,1.7c0.6,1.3,1.3,3.4,0.8,6c-0.3,1.3-0.8,2.7-1.8,4c-1,1.3-2.3,2.4-4,3.1c-1.6,0.7-3.6,1.1-5.6,0.8
				c-2-0.3-3.7-1-5.4-1.5c-1.7-0.5-3.2-0.8-4.5-0.4c-1.3,0.4-2.3,1.4-2.9,2.6c-0.6,1.2-0.9,2.6-0.9,3.8c0,1.2,0.4,2.5,0.8,3.5
				c0.8,2.1,1.9,3.8,2.6,4.9C293.3,670,293.6,670.6,293.5,670.8z"/>
		</g>
	</g>
</g>
<g>
	<g>
		<g>
			<path class="st4" d="M310,737.3c-0.1,0.1-0.7-0.4-1.7-1.3c-0.9-1-2.3-2.5-3.5-4.8c-0.6-1.2-1.1-2.5-1.2-4.1
				c-0.1-1.6,0.1-3.3,0.9-5c0.8-1.7,2.2-3.3,4.3-4c1-0.3,2.1-0.4,3.1-0.3c1,0.1,2,0.4,2.9,0.7c1.8,0.6,3.5,1.3,5,1.5
				c1.5,0.2,3,0,4.3-0.5s2.4-1.3,3.3-2.3c0.8-0.9,1.4-2,1.7-3c0.6-2.1,0.4-4,0.1-5.2c-0.3-1.3-0.6-1.9-0.5-2
				c0.1-0.1,0.8,0.4,1.4,1.7c0.6,1.3,1.3,3.4,0.8,6c-0.3,1.3-0.8,2.7-1.8,4c-1,1.3-2.3,2.4-4,3.1c-1.6,0.7-3.6,1.1-5.6,0.8
				c-2-0.3-3.7-1-5.4-1.5c-1.7-0.5-3.2-0.8-4.5-0.4c-1.3,0.4-2.3,1.4-2.9,2.6c-0.6,1.2-0.9,2.6-0.9,3.8c0,1.2,0.4,2.5,0.8,3.5
				c0.8,2.1,1.9,3.8,2.6,4.9C309.8,736.5,310.1,737.2,310,737.3z"/>
		</g>
	</g>
</g>
<g>
	<g>
		<g>
			<path class="st4" d="M176.9,708.9c-0.2,0-0.3-0.8-0.4-2.1c0-1.4,0-3.4,0.7-5.9c0.4-1.2,0.9-2.6,1.9-3.9c1-1.3,2.3-2.4,4-3.1
				c1.7-0.7,3.9-1,5.9,0c1,0.4,1.8,1.1,2.5,1.9c0.7,0.8,1.2,1.6,1.7,2.4c1,1.7,1.7,3.2,2.7,4.4c0.9,1.2,2.2,2,3.5,2.5
				c1.3,0.5,2.7,0.6,3.9,0.5c1.2-0.1,2.4-0.6,3.3-1.1c1.9-1.2,3-2.7,3.6-3.8c0.6-1.1,0.8-1.9,1-1.8c0.1,0,0.3,0.8-0.1,2.2
				c-0.4,1.4-1.4,3.4-3.5,5c-1.1,0.8-2.4,1.5-4,1.7c-1.6,0.3-3.3,0.2-5-0.4c-1.7-0.6-3.4-1.6-4.7-3.1c-1.3-1.5-2.1-3.2-3-4.7
				c-0.9-1.5-1.9-2.8-3.1-3.4c-1.2-0.6-2.6-0.5-3.9,0c-1.3,0.5-2.4,1.3-3.2,2.3c-0.8,0.9-1.4,2.1-1.8,3.1c-0.8,2.1-1.1,4.1-1.4,5.4
				C177.3,708.2,177.1,708.9,176.9,708.9z"/>
		</g>
	</g>
</g>
<g>
	<g>
		<g>
			<path class="st4" d="M297.1,791c-0.2,0-0.3-0.8-0.4-2.1c0-1.4,0-3.4,0.7-5.9c0.4-1.2,0.9-2.6,1.9-3.9c1-1.3,2.3-2.4,4-3.1
				c1.7-0.7,3.9-1,5.9,0c1,0.4,1.8,1.1,2.5,1.9c0.7,0.8,1.2,1.6,1.7,2.4c1,1.7,1.7,3.2,2.7,4.4c0.9,1.2,2.2,2,3.5,2.5
				c1.3,0.5,2.7,0.6,3.9,0.5c1.2-0.1,2.4-0.6,3.3-1.1c1.9-1.1,3-2.7,3.6-3.8c0.6-1.1,0.8-1.9,1-1.8c0.1,0,0.3,0.8-0.1,2.2
				c-0.4,1.4-1.4,3.4-3.5,5c-1.1,0.8-2.4,1.5-4,1.7c-1.6,0.3-3.3,0.2-5-0.4c-1.7-0.6-3.4-1.6-4.7-3.1c-1.3-1.5-2.1-3.2-3-4.7
				c-0.9-1.5-1.9-2.8-3.1-3.4c-1.2-0.6-2.6-0.5-3.9,0c-1.3,0.5-2.4,1.3-3.2,2.3c-0.8,0.9-1.4,2.1-1.8,3.1c-0.8,2.1-1.1,4.1-1.4,5.4
				C297.5,790.3,297.2,791.1,297.1,791z"/>
		</g>
	</g>
</g>
<g>
	<g>
		<g>
			<path class="st4" d="M293.6,542.2c-0.2,0-0.3-0.8-0.4-2.1c0-1.4,0-3.4,0.7-5.9c0.4-1.2,0.9-2.6,1.9-3.9c1-1.3,2.3-2.4,4-3.1
				c1.7-0.7,3.9-1,5.9,0c1,0.4,1.8,1.1,2.5,1.9c0.7,0.8,1.2,1.6,1.7,2.4c1,1.7,1.7,3.2,2.7,4.4c0.9,1.2,2.2,2,3.5,2.5
				c1.3,0.5,2.7,0.6,3.9,0.5c1.2-0.1,2.4-0.6,3.3-1.1c1.9-1.1,3-2.7,3.6-3.8c0.6-1.1,0.8-1.9,1-1.8c0.1,0,0.3,0.8-0.1,2.2
				c-0.4,1.4-1.4,3.4-3.5,5c-1.1,0.8-2.4,1.5-4,1.7c-1.6,0.3-3.3,0.2-5-0.4c-1.7-0.6-3.4-1.6-4.7-3.1c-1.3-1.5-2.1-3.2-3-4.7
				c-0.9-1.5-1.9-2.8-3.1-3.4c-1.2-0.6-2.6-0.5-3.9,0c-1.3,0.5-2.4,1.3-3.2,2.3c-0.8,0.9-1.4,2.1-1.8,3.1c-0.8,2.1-1.1,4.1-1.4,5.4
				C294,541.5,293.8,542.2,293.6,542.2z"/>
		</g>
	</g>
</g>
<g>
	<g>
		<g>
			<path class="st4" d="M254.3,824.1c-0.1,0.2-0.8,0-2.1-0.5c-1.3-0.5-3.1-1.3-5.1-2.9c-1-0.8-2-1.8-2.8-3.2
				c-0.8-1.4-1.3-3.1-1.3-4.9c0-1.8,0.6-3.9,2.3-5.4c0.8-0.7,1.8-1.2,2.7-1.5c1-0.3,2-0.5,2.9-0.6c1.9-0.2,3.7-0.3,5.1-0.7
				c1.4-0.4,2.7-1.2,3.7-2.2c1-1,1.6-2.2,2-3.4c0.4-1.2,0.4-2.4,0.3-3.5c-0.3-2.2-1.3-3.8-2.1-4.8c-0.8-1-1.4-1.5-1.3-1.7
				c0.1-0.1,0.9,0,2,0.9c1.1,0.9,2.5,2.6,3.2,5.2c0.3,1.3,0.4,2.8,0,4.4c-0.4,1.5-1.1,3.1-2.3,4.5c-1.2,1.3-2.8,2.5-4.7,3.1
				c-1.9,0.6-3.8,0.6-5.5,0.9c-1.8,0.2-3.3,0.6-4.3,1.5c-1,0.9-1.5,2.2-1.6,3.5c-0.1,1.4,0.3,2.7,0.8,3.8c0.5,1.1,1.3,2.1,2.1,2.9
				c1.6,1.6,3.3,2.6,4.4,3.4C253.8,823.4,254.4,823.9,254.3,824.1z"/>
		</g>
	</g>
</g>
<g>
	<g>
		<g>
			<path class="st4" d="M111.8,579.8c0.2-0.1,0.7,0.4,1.6,1.5c0.8,1.1,2,2.7,3,5.1c0.4,1.2,0.8,2.6,0.8,4.2c0,1.6-0.4,3.3-1.3,4.9
				c-0.9,1.6-2.5,3.1-4.7,3.5c-1,0.2-2.1,0.2-3.2,0s-1.9-0.6-2.8-0.9c-1.8-0.8-3.3-1.6-4.8-2c-1.4-0.4-2.9-0.3-4.3,0.1
				c-1.4,0.4-2.5,1.1-3.5,1.9c-0.9,0.8-1.6,1.9-2,2.9c-0.8,2-0.8,4-0.6,5.2c0.2,1.3,0.5,2,0.3,2.1c-0.1,0.1-0.7-0.5-1.3-1.8
				c-0.5-1.3-0.9-3.5-0.2-6.1c0.4-1.3,1.1-2.6,2.2-3.8c1.1-1.2,2.6-2.1,4.3-2.7c1.7-0.6,3.7-0.7,5.6-0.3c1.9,0.5,3.6,1.3,5.2,2
				c1.6,0.7,3.1,1.1,4.5,0.9c1.3-0.2,2.4-1.1,3.2-2.3c0.7-1.1,1.2-2.5,1.2-3.7c0.1-1.2-0.1-2.5-0.4-3.6c-0.6-2.2-1.5-3.9-2.1-5.2
				C111.9,580.6,111.7,579.9,111.8,579.8z"/>
		</g>
	</g>
</g>
<g>
	<g>
		<g>
			<path class="st4" d="M249.4,555.2c0.1-0.1,0.7,0.4,1.6,1.5c0.8,1.1,2,2.7,3,5.1c0.4,1.2,0.8,2.6,0.8,4.2c0,1.6-0.4,3.3-1.4,4.9
				c-0.9,1.6-2.5,3.1-4.7,3.5c-1,0.2-2.1,0.2-3.1,0s-1.9-0.6-2.8-0.9c-1.8-0.8-3.3-1.6-4.8-2c-1.4-0.4-2.9-0.3-4.3,0.1
				c-1.4,0.4-2.5,1.1-3.5,1.9c-0.9,0.8-1.6,1.9-2,2.9c-0.8,2-0.8,4-0.6,5.2c0.2,1.3,0.5,2,0.3,2.1c-0.1,0.1-0.7-0.5-1.3-1.8
				c-0.5-1.3-0.9-3.5-0.2-6.1c0.4-1.3,1.1-2.6,2.2-3.8c1.1-1.2,2.6-2.1,4.3-2.7c1.7-0.6,3.7-0.7,5.6-0.3c1.9,0.5,3.6,1.3,5.2,2
				c1.6,0.7,3.1,1.1,4.5,0.9c1.3-0.2,2.4-1.1,3.1-2.3c0.7-1.1,1.1-2.5,1.2-3.7c0.1-1.2-0.1-2.5-0.4-3.6c-0.6-2.2-1.5-3.9-2.1-5.2
				C249.5,556,249.2,555.3,249.4,555.2z"/>
		</g>
	</g>
</g>
<g>
	<g>
		<g>
			<path class="st12" d="M164.6,699.9c0,0,0-0.2,0-0.5c0-0.4,0.1-0.9,0.1-1.6c0.1-1.4,0.4-3.5,0.6-6.2c0.6-5.4,1.4-13.1,2.4-22.7
				c2.1-19.2,4.9-45.7,8.1-74.9c0.7-7.3,1.1-14.5,0.1-21.4c-1-6.8-3.7-13.1-7.6-18.1c-3.9-5-8.7-8.8-13.6-11.6
				c-4.9-2.8-10-4.5-14.6-5.6c-4.7-1-9-1.5-12.9-1.6c-3.8-0.1-7.1,0-9.8,0.2c-2.7,0.2-4.8,0.5-6.2,0.6c-0.7,0.1-1.2,0.2-1.6,0.2
				c-0.4,0-0.6,0.1-0.6,0.1s2.9-0.6,8.3-1.1c2.7-0.2,6-0.4,9.8-0.3c3.8,0.1,8.2,0.5,12.9,1.5c4.7,1,9.8,2.7,14.8,5.5
				c4.9,2.8,9.8,6.6,13.8,11.7c2,2.5,3.7,5.4,5,8.5c1.3,3.1,2.3,6.4,2.8,9.9c1.1,6.9,0.7,14.2,0,21.5c-3.2,29.3-6.1,55.7-8.3,74.9
				c-1.1,9.6-2,17.3-2.6,22.7c-0.3,2.7-0.6,4.7-0.7,6.2c-0.1,0.7-0.1,1.2-0.2,1.6C164.6,699.7,164.6,699.9,164.6,699.9z"/>
		</g>
	</g>
</g>
<g>
	<g>
		<g>
			<path class="st12" d="M170,693.2c0,0.1-28,3.2-62.6,6.9c-34.6,3.7-62.6,6.5-62.6,6.4c0-0.1,28-3.2,62.6-6.9
				C142,695.9,170,693.1,170,693.2z"/>
		</g>
	</g>
</g>
<g>
	<g>
		<g>
			<path class="st12" d="M338.2,679.4c0,0,0-0.1,0-0.3c0-0.2,0.1-0.5,0.1-0.8c0.1-0.8,0.4-1.8,0.6-3.2c0.1-0.7,0.3-1.5,0.5-2.3
				c0.1-0.8,0.3-1.8,0.4-2.7c0.3-2,0.7-4.2,0.8-6.7c0.1-1.2,0.2-2.5,0.3-3.9c0.1-1.4,0.1-2.8,0.1-4.2c0.1-2.9-0.1-6.1-0.2-9.3
				c-0.5-6.6-1.5-13.8-3.3-21.2c-1.9-7.4-4.5-14.2-7.2-20.2c-1.5-3-2.8-5.8-4.3-8.3c-0.7-1.3-1.4-2.5-2.1-3.7
				c-0.7-1.1-1.5-2.2-2.1-3.3c-1.3-2.1-2.7-3.9-3.9-5.5c-0.6-0.8-1.1-1.5-1.7-2.2c-0.5-0.7-1-1.2-1.5-1.8c-0.9-1-1.6-1.9-2.1-2.5
				c-0.2-0.3-0.4-0.5-0.5-0.7c-0.1-0.2-0.2-0.2-0.2-0.2c0,0,0.1,0.1,0.2,0.2c0.1,0.2,0.3,0.4,0.6,0.6c0.5,0.6,1.2,1.4,2.1,2.4
				c0.5,0.5,1,1.1,1.5,1.8c0.5,0.7,1.1,1.4,1.7,2.2c1.2,1.6,2.6,3.3,4,5.5c0.7,1,1.4,2.1,2.2,3.3c0.8,1.1,1.4,2.4,2.2,3.7
				c1.5,2.5,2.9,5.4,4.4,8.3c2.8,6,5.3,12.8,7.3,20.3c1.8,7.4,2.8,14.7,3.3,21.3c0.1,3.3,0.3,6.5,0.1,9.4c-0.1,1.5,0,2.9-0.1,4.3
				c-0.1,1.4-0.2,2.7-0.4,3.9c-0.2,2.5-0.6,4.7-0.9,6.7c-0.2,1-0.3,1.9-0.5,2.7c-0.2,0.8-0.4,1.6-0.5,2.3c-0.3,1.3-0.6,2.4-0.7,3.1
				c-0.1,0.3-0.1,0.6-0.2,0.8C338.3,679.3,338.2,679.4,338.2,679.4z"/>
		</g>
	</g>
</g>
<g>
	<g>
		<path class="st5" d="M663.8,680.2c-4-14.1,2.3-29.5,17-33.7c7.4-2.1,14.5-0.7,21.2,2.9c5.1,2.7,9.9,6,15.7,7
			c20.7,3.4,37.5-21.5,23.7-38.6c-0.7-0.8-1.9,0.2-1.4,1.1c7.3,12.9,3.9,29.7-11.4,34.6c-13.8,4.5-22.5-7.1-35-9.5
			c-20.5-4-39.1,16.7-30.7,36.5C663.1,681,664,680.8,663.8,680.2L663.8,680.2z"/>
	</g>
</g>
<g>
	<g>
		<path class="st0" d="M713.7,358.8c3.9,7.5,9,14.6,14,21.4c2.7,3.6,6.3,10.8,11.2,11.7c2.3,0.4,4-0.7,5.8-1.9
			c3.8-2.5,7.4-5.3,11.1-7.9c7.4-5.3,14.8-10.5,22.2-15.8c0.4-0.3,0.7-0.9,0.3-1.3c-8.2-12.6-16.3-25.1-24.5-37.7
			c-0.3-0.4-0.9-0.7-1.3-0.4c-9.7,6.9-19.7,13.5-29.2,20.7c-0.9,0.7-0.1,2.2,0.9,1.5c5.5-3.6,10.9-7.6,16.3-11.4
			c3-2.1,6-4.2,8.9-6.3c1.2-0.9,2.2-2.1,3.8-1.6c0.9,0.3,2.2,3.4,2.7,4.1c3.5,5.5,7.1,10.9,10.7,16.4c2,3,3.9,6,5.9,9
			c0.7,1.1,1.5,2.1,2.1,3.3c1.4,2.6,1.5,2.3-0.7,4.2c-4.7,4.3-10.7,7.6-15.8,11.3c-2.6,1.9-5.3,3.8-7.9,5.6c-2.2,1.6-5,4.5-7.6,5.4
			c-5.3,1.8-7.7-2.5-10.2-5.8c-2.4-3.1-4.7-6.2-7-9.3c-3.8-5.2-7.2-10.6-11-15.8C714,358.1,713.4,358.4,713.7,358.8L713.7,358.8z"/>
	</g>
</g>
<g>
	<g>
		<path class="st7" d="M597.1,478.4c-8.9,8.3-12.5,21.3-8.4,32.9c4.1,11.6,15.6,19,27.7,19.5c26.8,1.1,40.4-32.6,22.3-51.5
			c-9.6-10-24.7-13.9-38.2-11.8c-1.4,0.2-1.1,2.6,0.3,2.5c13.2-1.2,27.7,1.9,36.9,12c10.2,11.2,8.7,28.8-2.1,39.1
			c-10.9,10.4-29.4,9-39.5-1.9c-10.2-11.1-9.1-29.7,1.8-40C598.5,478.7,597.7,477.8,597.1,478.4L597.1,478.4z"/>
	</g>
</g>
<g>
	<g>
		<path class="st13" d="M894.6,591.8c-3.3,23.3-6.5,46.5-9.6,69.8c-0.1,0.7,0.4,1.2,1,1c21.7-3.4,43.3-6.8,65-10.4
			c0.5-0.1,0.7-0.8,0.5-1.2c-12.3-22.2-28.3-44.9-48.8-60.4c-0.8-0.6-1.7,0.7-1,1.4c7.7,7.5,15.6,14.5,22.7,22.7
			c7.5,8.7,14.3,17.9,20.3,27.7c1.2,2,3.2,4.3,3.9,6.5c0.6,2,1.1,1.3-0.9,2.3c-1.2,0.6-3.7,0.6-4.9,0.7c-6.3,0.9-12.5,1.9-18.7,2.9
			c-12.8,2-25.6,4.1-38.4,6.2c0.4,0.3,0.7,0.5,1.1,0.8c3.1-23.3,6.1-46.6,9-69.8C895.7,591.3,894.7,591.2,894.6,591.8L894.6,591.8z"
			/>
	</g>
</g>
<g>
	<g>
		<path class="st14" d="M787.1,546.9c2.9-22.8,6.1-45.8,8.1-68.7c0.1-0.9-1.4-1.1-1.6-0.2c-3.3,22.8-5.3,45.9-7.6,68.9
			C786,547.6,787,547.5,787.1,546.9L787.1,546.9z"/>
	</g>
</g>
<g>
	<g>
		<path class="st0" d="M1039.5,540.9c23,1.1,46.1,2.5,69.1,2.6c1,0,1-1.5,0-1.6c-22.9-1.4-46.1-1.6-69.1-2.1
			C1038.8,539.8,1038.9,540.9,1039.5,540.9L1039.5,540.9z"/>
	</g>
</g>
<g>
	<g>
		<path class="st13" d="M853.5,249.2c21.2,9,42.5,18.4,64,26.5c0.8,0.3,1.4-1.1,0.6-1.5c-21.1-9.3-42.8-17.5-64.2-26
			C853.4,248,853,249,853.5,249.2L853.5,249.2z"/>
	</g>
</g>
<g>
	<g>
		<path class="st8" d="M908.8,447.7c-0.3-0.4-0.7-0.7-1.1-1.1c-0.6-0.6-1.7-0.7-2.3,0c-0.6,0.7-0.6,1.6,0,2.3
			c0.3,0.4,0.7,0.8,1.1,1.1c0.6,0.6,1.7,0.7,2.3,0C909.5,449.3,909.5,448.4,908.8,447.7L908.8,447.7z"/>
	</g>
</g>
<image style="overflow:visible;enable-background:new    ;" width="2480" height="1040" xlink:href="69B04D3D.jpeg"  transform="matrix(0.7069 0 0 0.3404 -169 -549)">
</image>
</svg>
