<?xml version="1.0" encoding="utf-8"?>
<!-- Generator: Adobe Illustrator 23.0.3, SVG Export Plug-In . SVG Version: 6.00 Build 0)  -->
<svg version="1.1" id="Layer_1" xmlns="http://www.w3.org/2000/svg" xmlns:xlink="http://www.w3.org/1999/xlink" x="0px" y="0px"
	 viewBox="0 0 1200 1200" style="enable-background:new 0 0 1200 1200;" xml:space="preserve">
<style type="text/css">
	.st0{fill:#FFB600;}
	.st1{fill:#FFAEA6;}
	.st2{fill:#002C68;}
	.st3{fill:#464749;}
	.st4{fill:#241352;}
	.st5{fill:#30343F;}
	.st6{opacity:0.41;fill:#FFFFFF;enable-background:new    ;}
	.st7{fill:#34BBC1;}
	.st8{fill:#FFFFFF;}
	.st9{fill:#FF9700;}
	.st10{fill:#FAC480;}
	.st11{fill:#7CAAFF;}
</style>
<g>
	<path class="st0" d="M967.5,719.8c21.7-10.4,43.9-22.3,63.4-36.3c7.2-5.2,0.1-15.2-7.5-11.2c-20.9,10.9-41.3,25.1-59.9,39.5
		C959.8,714.6,962.6,722.2,967.5,719.8L967.5,719.8z"/>
</g>
<g>
	<path class="st0" d="M168.5,786.1c-4.5-23.6-10.4-48.1-19-70.6c-3.2-8.3-14.7-4-12.8,4.4c5.3,23,13.8,46.3,23,68
		C161.6,792.2,169.6,791.4,168.5,786.1L168.5,786.1z"/>
</g>
<g>
	<path class="st0" d="M236.8,577.1c-0.4-0.4-0.8-0.7-1.2-1.1c-5.4-4.8-14.2-5.7-19.4,0c-5.3,5.8-5.1,13.7,0,19.4
		c0.4,0.4,0.7,0.8,1.1,1.2c4.8,5.4,14.7,5.3,19.6,0C241.6,591.4,242.6,582.2,236.8,577.1L236.8,577.1z"/>
</g>
<path class="st0" d="M814.9,1185.7c0,0-228,53-319.5-38.5l32.8-218.7c10-62.9,4-183.8,52.2-226.8c9.3-8.3,18.3-12.4,18.3-12.4
	c33.8-16.3,93.9-25.1,151.5-25.3c70.1-0.3,142.2,52.7,160.6,120.3l-75.8,177.4L814.9,1185.7z"/>
<g>
	<path class="st1" d="M792.4,811.5c0,0,102.1,196.7,51.4,207.2c-166.8,34.5-263.6,62.7-263.6,62.7l-8.5,64.8
		c2.5,9.8,337.5,1.3,377.2-43.7c28-31.8,65.3-105.2-14-264.2l-24.1-54.1L792.4,811.5z"/>
</g>
<path class="st1" d="M600.6,710.2l-254.4,98.5l-8-133.4l-54.5-21.1c0,0-79,214.2,19.8,254c98.8,39.9,210-33.8,210-33.8L600.6,710.2z
	"/>
<path class="st0" d="M632.1,677.4c-88.8,28.3-141.7,61.4-266.7,113.6l64.2,143.1l110.6-35.5L632.1,677.4z"/>
<polyline class="st0" points="777.1,784.2 841.6,934.1 987.1,907.5 889.1,738.7 773,784.2 "/>
<g>
	<path class="st2" d="M701,886.4c31-1.7,61.6-0.4,92.6,0c2.7,0,2.5-3.8,0-4.1c-30.5-3.7-62-2.2-92.6,0.4
		C698.7,883,698.6,886.5,701,886.4L701,886.4z"/>
</g>
<g>
	<path class="st2" d="M839.8,712.5c-104.7,9.5-33.1,163.8-6.3,210.6c1.5,2.6,5.5,0.3,4-2.4c-26.7-47.2-98-190.9,2.6-205.7
		C841.5,714.9,841.2,712.4,839.8,712.5L839.8,712.5z"/>
</g>
<g>
	<path class="st2" d="M549.6,800.8c-12.9,51.4-21.5,104.9-24.7,157.8c-0.1,2.2,3.6,2.8,3.9,0.5c7.5-52.6,15-105.1,23.5-157.6
		C552.5,799.8,550,799.1,549.6,800.8L549.6,800.8z"/>
</g>
<g>
	<path class="st3" d="M794.6,515.7c1.6-22.1,3.2-44.2,4.8-66.3c17.4-4.9,26.4-27.1,19.5-43.8s-26.6-26-44.5-23.5
		c11.3-7.7,10.4-26,1.2-36s-23.8-13.3-37.4-13.8c-13.6-0.5-27.4,1.1-40.8-1.4c-11.9-2.2-23.5-7.6-35.5-6.1c-12,1.5-23.5,15-17,25.2
		c-17.3-2.5-36-4.9-51.4,3.5s-23.1,32.1-9.9,43.5c-8.7,4.5-10.9,17.1-6,25.5c4.9,8.5,15,12.9,24.7,13.6c9.8,0.7,19.5-1.8,28.9-4.2"
		/>
</g>
<path class="st1" d="M791.8,472.7l-3.5,45.9c0,0,39.1,5.3,27.9,40.9c-11.1,35.6-37.9,20-37.9,20s-6.7,91.3-100.2,62.4
	c-74.5-23-69.9-119.5-60.4-201.6c3.7-31.8,33.8-53.7,65.2-47.6l56.2,11C771.7,410,794.3,439.6,791.8,472.7z"/>
<path class="st1" d="M788.3,556.8l-25.2,134.4c-5.7,30.3-35.5,49.7-65.5,42.5l0,0c-27.8-6.6-45.6-33.8-40.6-61.9l13.7-77
	L788.3,556.8z"/>
<g>
	<g>
		<g>
			<path class="st4" d="M684.8,558.3c0.2,0.1,0.2,0.4,0,1.1c-0.2,0.6-0.8,1.7-2.3,2.3c-1.4,0.6-3.5,0.3-5.1-0.8
				c-0.8-0.6-1.7-1.3-2.3-2.3c-0.7-1-1.1-2-1.5-3.1c-1.6-4.5-1.4-9.8-1.2-15.3c0.2-5.5,0.5-11.6,0.9-17.9c1.6-25.4,4-46,5.5-45.9
				s1.3,20.8-0.3,46.2c-0.4,6.4-0.8,12.4-1.3,17.9c-0.5,5.5-1,10.3-0.1,13.9c0.2,0.9,0.5,1.8,0.8,2.4c0.3,0.7,0.8,1.2,1.2,1.7
				c1,0.9,2,1.2,2.8,1.2c0.8-0.1,1.5-0.5,1.9-0.9C684.4,558.4,684.7,558.2,684.8,558.3z"/>
		</g>
	</g>
</g>
<g>
	<g>
		<g>
			<path class="st4" d="M654.5,632.5c0.5-0.6,4.9,2.3,12.7,5.7c7.7,3.4,18.9,6.8,31.6,7.1c12.7,0.3,24.1-2.7,31.9-5.8
				c7.9-3,12.4-5.8,12.9-5.1c0.2,0.3-0.7,1.3-2.6,2.9c-1.9,1.6-4.9,3.6-8.8,5.6c-3.9,2-8.8,4-14.5,5.4c-5.7,1.4-12.2,2.3-19,2.2
				c-6.8-0.2-13.2-1.3-18.9-3s-10.5-3.9-14.3-6c-3.8-2.2-6.7-4.3-8.5-6C655.1,633.9,654.3,632.8,654.5,632.5z"/>
		</g>
	</g>
</g>
<g>
	<g>
		<g>
			<path class="st4" d="M672.8,577.1c0.6-0.5,2.7,1.4,6.6,3c1.9,0.8,4.3,1.5,7.1,1.8c2.7,0.3,5.7,0.1,8.6-0.8c2.9-1,5.4-2.5,7.5-4.3
				c2-1.8,3.6-3.8,4.7-5.6c2.2-3.6,2.8-6.4,3.6-6.3c0.3,0,0.6,0.8,0.7,2.2c0.1,1.4-0.2,3.4-1,5.8c-0.8,2.3-2.3,5-4.6,7.5
				c-2.3,2.5-5.5,4.6-9.2,5.9c-3.8,1.2-7.6,1.3-10.9,0.6c-3.3-0.7-6.1-1.9-8.1-3.4s-3.4-2.9-4.2-4.1
				C672.7,578.1,672.5,577.3,672.8,577.1z"/>
		</g>
	</g>
</g>
<g>
	<g>
		<g>
			<path class="st4" d="M791.3,564c0-0.4,0.5-0.7,1.4-1.1c0.9-0.4,2.1-0.9,3.3-1.7c0.6-0.4,1.2-0.9,1.6-1.5c0.4-0.5,0.8-1.3,1-2
				c0.2-0.7,0.2-1.5-0.1-2.1c-0.1-0.3-0.3-0.5-0.4-0.7c-0.2-0.2-0.4-0.3-0.7-0.4c-0.4-0.2-0.9-0.2-1.3-0.1c-0.4,0.1-0.5,0.2-0.6,0.3
				l-8.9,6.7l4.4-9c3.6-7.3,6.8-12.2,7.9-11.7c1.1,0.5-0.4,6.2-3.4,13.8l-4.4-2.3c0.8-1.3,2.2-2.4,3.7-2.7c1.5-0.4,2.9-0.3,4.3,0.3
				c1,0.4,1.9,0.9,2.6,1.8c0.8,0.8,1.2,1.8,1.5,2.7c0.5,1.9,0.3,3.7-0.2,5.1c-0.5,1.5-1.4,2.7-2.5,3.6c-1,0.9-2.1,1.4-3.1,1.8
				c-2,0.7-3.6,0.6-4.7,0.4C791.8,564.7,791.3,564.3,791.3,564z"/>
		</g>
	</g>
</g>
<g>
	<g>
		<g>
			<path class="st4" d="M719.2,473.4c-0.2-0.7,0.8-1.6,2.8-2.3c1.9-0.7,4.9-0.9,7.9-0.1c3,0.8,5.5,2.4,6.9,4
				c1.4,1.5,1.8,2.9,1.3,3.4c-0.5,0.5-1.7,0.2-3.3-0.3c-1.6-0.6-3.7-1.3-6.1-2c-2.4-0.6-4.6-1-6.3-1.3
				C720.6,474.5,719.4,474.1,719.2,473.4z"/>
		</g>
	</g>
</g>
<g>
	<g>
		<g>
			<path class="st4" d="M638.4,460.6c-0.3-0.6,0.7-1.8,2.7-2.7c2-0.9,5-1.6,8.4-1.3c3.4,0.3,6.3,1.5,8.1,2.8
				c1.8,1.3,2.6,2.5,2.2,3.1c-0.4,0.6-1.7,0.5-3.6,0.3c-1.9-0.3-4.3-0.7-7.1-1c-2.7-0.2-5.2-0.2-7.2-0.3
				C640,461.4,638.6,461.3,638.4,460.6z"/>
		</g>
	</g>
</g>
<g>
	<path class="st3" d="M788.3,518.6c-26.1-25.5-33.8-67.9-40.9-103.6c-24.2,17.6-57.4,21.9-85.3,11.1c-8.8,10.3-19,19.3-30.4,26.5
		c-3.2,2.1-7.1,4.1-10.7,3c-4.4-1.3-6.3-6.4-7.4-10.8c-3.3-14.3-3.5-29.5,1.5-43.3c5-13.8,15.4-25.9,29.1-31.2
		c14.6-5.7,31-3.2,46.2,0.7c22.8,5.9,44.8,15,65.2,26.9c20,11.7,39.2,27.2,47.7,48.7c8.5,21.5,8.4,63.4-12,74.3"/>
</g>
<g>
	<g>
		<g>
			<path class="st4" d="M726.3,510.8c-1.4-0.1-2.4-3.3-2.1-7.2c0.3-3.9,1.7-7,3.1-6.9s2.4,3.3,2.1,7.2S727.7,510.9,726.3,510.8z"/>
		</g>
	</g>
</g>
<g>
	<g>
		<g>
			<path class="st4" d="M651.2,501.2c-1.4-0.1-2.4-3.3-2.1-7.2c0.3-3.9,1.7-7,3.1-6.9s2.4,3.3,2.1,7.2S652.6,501.3,651.2,501.2z"/>
		</g>
	</g>
</g>
<path class="st1" d="M281.1,658.6c0,0,11.3-69.4,24.8-68.6s40.5,0,40.5,0s2.3-66,9.8-55.5c7.5,10.5,9.9,99.3-19.1,141.9L281.1,658.6
	z"/>
<path class="st1" d="M580.2,1081.4c0,0-121,21.2-118.7,36.9c2.4,15.7,10.9,31.5,10.9,31.5l107.8-2.5L580.2,1081.4L580.2,1081.4z"/>
<polygon class="st5" points="711.5,1153.6 710.6,1136.8 461.3,1121.6 377.7,898 104.1,913 197.5,1154.8 "/>
<path class="st6" d="M255,1019.5c0.6,11.2,10.2,19.8,21.4,19.1s19.8-10.2,19.1-21.4c-0.6-11.2-10.2-19.8-21.4-19.1
	C262.9,998.7,254.4,1008.3,255,1019.5z"/>
<path class="st6" d="M246.9,1019.9c0.9,15.7,14.3,27.7,29.9,26.8s27.7-14.3,26.8-29.9c-0.9-15.7-14.3-27.7-29.9-26.8
	C258,990.9,246,1004.3,246.9,1019.9z"/>
<path class="st7" d="M900.5,367c-3.2,6.3,7.4,168.7,7.4,168.7l80-6.7l-9.3,42.9l39.1-44.1l78.3-9l-4.8-157.5L900.5,367z"/>
<path class="st0" d="M697.3,113.9c0,0-55.1,2.8-57,61.6c0,0,0.9,32.1,18.4,44.1c17.5,11.9,16.5,24.8,16.5,24.8h45.9
	c0,0-1.8-16.5,5.5-25.7c7.3-9.2,25.7-28.5,23-57C746.9,133.2,725.8,111.2,697.3,113.9z"/>
<g>
	<path class="st8" d="M674.4,258.8c16.5-0.8,33.2,1,49.6,0.1c2.4-0.1,3.2-3.8,0.6-4.4c-15.9-3.3-34.1-1.5-50.2,0.3
		C671.9,255.1,671.8,258.9,674.4,258.8L674.4,258.8z"/>
</g>
<g>
	<path class="st8" d="M680.8,273.2c6.6-0.4,13.2-0.6,19.8-0.6c6.5,0.1,13.3,1.1,19.8,0.7c2.4-0.2,3.1-3.7,0.6-4.4
		c-12.6-3.3-27.9-1.4-40.7,0.4C678.1,269.7,678.6,273.3,680.8,273.2L680.8,273.2z"/>
</g>
<g>
	<path class="st8" d="M686.2,283.9c5.8,0.4,11.7,2,17.4,1.9c2.8-0.1,3.4-4.1,0.7-4.9c-5.6-1.8-12.3-1.1-18.1-0.9
		C683.7,280.1,683.7,283.7,686.2,283.9L686.2,283.9z"/>
</g>
<g>
	<path class="st8" d="M688.8,243.8c1.3-16.3-4.2-34.4-7-50.5c-1.6,0.7-3.2,1.4-4.8,2c2.3,3.8,6.2,14.7,12,14.4
		c6.1-0.4,8.3-11.3,9.2-15.7c-1.8,0-3.5,0-5.3,0c1.2,5,1.3,17.2,9.3,16.1c6.7-1,11.2-10.9,13.3-16.4c-1.8-0.5-3.6-1-5.5-1.5
		c-4,16-6,36.2-1.9,52.3c0.7,2.9,5.3,2.3,5.2-0.7c-0.5-16.9-2.9-33.5,2.2-50.1c1.1-3.6-4.2-4.8-5.5-1.5c-0.7,1.9-5.1,12.6-9.2,11.2
		c-1-0.4-2.4-9.9-2.6-10.8c-0.6-2.5-4.8-2.7-5.3,0c-0.6,3.3-2,12.2-5.8,9.6c-2.2-1.6-4.2-7.1-5.6-9.4c-1.6-2.7-5.3-0.8-4.8,2
		c2.5,16,3.2,34.7,9.7,49.7C687,245.7,688.7,244.9,688.8,243.8L688.8,243.8z"/>
</g>
<g>
	<path class="st9" d="M526,221.4c24.6-7.9,49.2-15.8,73.8-23.6"/>
	<g>
		<path class="st0" d="M526.6,223.7c12.6-4,25.2-8,37.9-12.1c12-3.8,24.8-6.9,36.3-12.2c2.1-1,0.5-3.9-1.5-3.5
			c-12.5,2.4-24.9,7.4-37,11.4c-12.3,4-24.6,7.9-36.9,11.9C522.6,220.1,523.8,224.6,526.6,223.7L526.6,223.7z"/>
	</g>
</g>
<g>
	<path class="st9" d="M556.7,148.2c15.6-0.4,31.2-0.8,46.8-1.2"/>
	<g>
		<path class="st0" d="M556.7,150.8c8.1-0.2,16.3-0.3,24.4-0.5c7.5-0.1,15.8,0.7,23.1-1c2.2-0.5,2.4-4.2,0-4.7
			c-7.4-1.4-15.6-0.1-23.1,0.1c-8.1,0.3-16.3,0.5-24.4,0.8C553.3,145.7,553.3,150.9,556.7,150.8L556.7,150.8z"/>
	</g>
</g>
<g>
	<path class="st9" d="M629.1,125.2c-17.9-15-35.8-29.9-53.7-44.9"/>
	<g>
		<path class="st0" d="M631,123.3c-9.3-8-18-16.7-27.4-24.8c-4.5-3.9-9.1-7.8-13.6-11.7c-4.2-3.7-8.4-7.9-13.6-10.1
			c-3-1.2-5.7,2.8-4.1,5.3c3,4.7,8.1,8,12.3,11.5c4.7,3.8,9.3,7.6,14,11.4c9.4,7.6,19.3,14.5,28.6,22.1
			C629.9,129.1,633.6,125.5,631,123.3L631,123.3z"/>
	</g>
</g>
<g>
	<path class="st9" d="M668.7,100.3c-5.3-8.6-10.7-17.2-16-25.9"/>
	<g>
		<path class="st0" d="M670,100.7c0.9-4.8-2.9-9.5-5.2-13.4c-2.9-5-5.4-11.3-9.6-15.2c-2.4-2.3-6.8-0.1-5.8,3.3
			c1.7,5.6,6.1,10.6,9.3,15.4c2.5,3.8,5,9.5,9.7,10.8C669,101.8,669.8,101.4,670,100.7L670,100.7z"/>
	</g>
</g>
<g>
	<path class="st9" d="M704.1,90.5c-0.5-23.8-1-47.6-1.5-71.4"/>
	<g>
		<path class="st0" d="M706.9,90.5c0.5-12.2,0.3-24.5,0.2-36.7c-0.1-6-0.2-11.9-0.2-17.9c-0.1-5.6,0.8-12.4-1.1-17.7
			c-1-2.9-5.2-3.1-6.2,0c-1.6,5.2-0.6,11.4-0.4,16.7c0.2,6.3,0.3,12.6,0.5,18.8c0.3,12.3,0.7,24.5,1.7,36.7
			C701.5,94.1,706.7,94.1,706.9,90.5L706.9,90.5z"/>
	</g>
</g>
<g>
	<path class="st9" d="M732,100.6c5.3-9.1,10.6-18.1,15.9-27.2"/>
	<g>
		<path class="st0" d="M734.2,101.9c6-8.6,12.3-17.2,16.6-26.7c1.8-4-3.3-6.9-5.8-3.4c-6.2,8.5-10.6,18.2-15.1,27.6
			C728.4,102.3,732.3,104.6,734.2,101.9L734.2,101.9z"/>
	</g>
</g>
<g>
	<path class="st9" d="M754.5,119.3c21.7-12.1,43.3-24.3,65-36.4"/>
	<g>
		<path class="st0" d="M755.1,121.6c12.1-4.1,23.5-11.5,34.7-17.6c5.7-3.1,11.5-6.2,17.2-9.4c4.8-2.7,12.5-5.1,15.1-10.2
			c1.1-2.1-0.3-4.3-2.6-4.5c-5.5-0.5-11.2,4.5-15.8,7.1c-6,3.4-11.9,6.8-17.9,10.2c-11.1,6.4-23.2,12.2-33.1,20.3
			C751,119.2,752.9,122.3,755.1,121.6L755.1,121.6z"/>
	</g>
</g>
<g>
	<path class="st9" d="M770.9,149.5c9.4,0.8,19-1.1,27.3-5.6"/>
	<g>
		<path class="st0" d="M770.2,152.1c4.8,2,10.8,1.4,15.9,0.6c5.1-0.9,11.1-2.2,14.7-6.2c1.8-2,0.8-6.4-2.5-6
			c-4.7,0.5-8.9,2.9-13.5,4.1c-4.8,1.2-9.8,1.1-14.6,2.4C767.4,147.7,767.9,151.1,770.2,152.1L770.2,152.1z"/>
	</g>
</g>
<g>
	<path class="st9" d="M774.6,191.5c33.3,7,66.6,14.1,100,21.1"/>
	<g>
		<path class="st0" d="M773.7,194.6c16.8,4.3,33.7,8.2,50.6,12c8.3,1.9,16.6,3.7,24.9,5.5c4.2,0.9,8.3,1.9,12.5,2.8
			c4.1,0.9,8.6,2.4,12.8,1.9c3.9-0.5,6-5.4,2.1-7.8c-6.6-4-16.4-4.4-23.9-5.9c-8.7-1.7-17.3-3.5-26-5.2c-17.1-3.3-34.1-6.6-51.3-9.5
			C771.4,187.7,769.6,193.6,773.7,194.6L773.7,194.6z"/>
	</g>
</g>
<g>
	<path class="st10" d="M560.5,783.9c23.2-6.3,47.2-14.1,68.9-24.4c8-3.8,2.8-14.9-5.3-12.4c-22.5,7-45.1,17.3-66,28.1
		C553.9,777.4,555.2,785.3,560.5,783.9L560.5,783.9z"/>
</g>
<g>
	<path class="st11" d="M477.3,989.8c24,1.8,49.2,2.5,73.1,0.1c8.8-0.9,7.7-12.9-0.8-13.2c-23.6-0.9-48.3,1.1-71.6,4.3
		C473.3,981.6,471.9,989.4,477.3,989.8L477.3,989.8z"/>
</g>
<path class="st8" d="M944.3,439.7l16.8,58.5l23.5-4.6l-2.3-11.8l6.7-4l12.6,12.5l39.9-7.8l5.2-15.3l-11.3-2.5l14.7-4.9l-3.2-16.3
	l-12.7,1.1l17.4-4.8l-3.9-20.3l-40.5,7.9c0,0,2.6-28.3-9.3-37.5l-9.2,1.8c0,0,3.1,8.9,2.8,14.4c-0.3,5.5-8.3,30.8-8.3,30.8
	l-12.4,5.8l-3-8.2L944.3,439.7z"/>
<polygon class="st7" points="119.8,330.2 133.3,492.2 431.6,492.2 448.1,549.2 465.5,486.7 522.3,483.4 496.1,338.3 "/>
<g>
	<g>
		<g>
			<path class="st8" d="M158.9,390.6c80.1-3.4,160.1-4.4,240.2,0.1c22.5,1.3,45,2.7,67.4,5.2c4.3,0.5,4.4-6.5,0-6.8
				c-40-2.6-79.9-5.5-120-6.8c-40-1.2-80.1-1.6-120.2-0.6c-22.5,0.6-45,1.4-67.5,2.9C155.2,385,155.1,390.8,158.9,390.6L158.9,390.6
				z"/>
		</g>
	</g>
	<g>
		<g>
			<path class="st8" d="M164.9,422.6c80.1-3.4,160.1-4.4,240.2,0.1c22.5,1.3,45,2.7,67.4,5.2c4.3,0.5,4.4-6.5,0-6.8
				c-40-2.6-79.9-5.5-120-6.8c-40-1.2-80.1-1.6-120.2-0.6c-22.5,0.6-45,1.4-67.5,2.9C161.2,417,161.1,422.7,164.9,422.6L164.9,422.6
				z"/>
		</g>
	</g>
	<g>
		<g>
			<path class="st8" d="M165.5,449.3c49.8,2.4,99.5-2.4,149.3-0.5c19,0.7,38,1.8,56.9,4c4.2,0.5,4.4-6.5,0-6.8
				c-28.9-1.4-57.6-4-86.5-3.7c-20.8,0.2-41.5,1.3-62.3,1.4c-19.1,0.1-38.2-0.3-57.3-0.4C161.7,443.4,161.7,449.1,165.5,449.3
				L165.5,449.3z"/>
		</g>
	</g>
</g>
<image style="overflow:visible;enable-background:new    ;" width="2480" height="1040" xlink:href="63DCABFD.jpeg"  transform="matrix(0.7069 0 0 0.3404 -205 -487)">
</image>
</svg>
