<?xml version="1.0" encoding="utf-8"?>
<!-- Generator: Adobe Illustrator 23.0.3, SVG Export Plug-In . SVG Version: 6.00 Build 0)  -->
<svg version="1.1" id="Layer_1" xmlns="http://www.w3.org/2000/svg" xmlns:xlink="http://www.w3.org/1999/xlink" x="0px" y="0px"
	 viewBox="0 0 1000 1000" style="enable-background:new 0 0 1000 1000;" xml:space="preserve">
<style type="text/css">
	.st0{display:none;}
	.st1{fill:#FFFFFF;}
	.st2{fill:#FFBC00;}
</style>
<rect x="-17" y="-15" class="st0" width="1048" height="1031"/>
<g>
	<g>
		<path class="st1" d="M76.92,401.83h95.3v26.87h-66.96v34.85h60.25v26.87h-60.25v34.85h66.96v26.87h-95.3V401.83z"/>
		<path class="st1" d="M236.77,550.98c-5.53-3.01-9.62-6.82-12.28-11.44h-1.68v12.59h-25.82v-150.3h27.5v43.87l-1.68,14.69h1.68
			c2.66-4.48,6.75-8.22,12.28-11.23c5.53-3.01,12-4.51,19.42-4.51c9.1,0,17.46,2.38,25.08,7.14c7.63,4.76,13.68,11.34,18.16,19.73
			c4.48,8.4,6.72,17.91,6.72,28.55c0,10.64-2.24,20.15-6.72,28.55c-4.48,8.4-10.53,14.98-18.16,19.73
			c-7.63,4.76-15.99,7.14-25.08,7.14C248.77,555.49,242.3,553.98,236.77,550.98z M264.58,526.31c4.34-2.52,7.8-6.05,10.39-10.6
			c2.59-4.55,3.88-9.76,3.88-15.64c0-6.02-1.3-11.3-3.88-15.85c-2.59-4.55-6.05-8.05-10.39-10.5c-4.34-2.45-8.96-3.67-13.85-3.67
			c-4.9,0-9.48,1.23-13.75,3.67c-4.27,2.45-7.7,5.95-10.29,10.5c-2.59,4.55-3.88,9.83-3.88,15.85c0,6.02,1.29,11.3,3.88,15.85
			c2.59,4.55,6.02,8.05,10.29,10.5c4.27,2.45,8.85,3.67,13.75,3.67C255.63,530.09,260.24,528.83,264.58,526.31z"/>
		<path class="st1" d="M345.5,548.35c-7.63-4.76-13.72-11.33-18.26-19.73c-4.55-8.4-6.82-17.91-6.82-28.55
			c0-10.63,2.27-20.15,6.82-28.55c4.55-8.4,10.63-14.97,18.26-19.73c7.63-4.76,15.99-7.14,25.08-7.14c7.27,0,13.68,1.47,19.21,4.41
			c5.53,2.94,9.69,6.72,12.49,11.34h1.68l-1.68-14.69v-43.87h27.29v150.3h-25.61v-12.59h-1.68c-2.8,4.62-6.96,8.43-12.49,11.44
			c-5.53,3.01-11.93,4.51-19.21,4.51C361.49,555.49,353.13,553.11,345.5,548.35z M389.69,526.42c4.34-2.45,7.8-5.95,10.39-10.5
			c2.59-4.55,3.88-9.83,3.88-15.85c0-6.02-1.3-11.3-3.88-15.85c-2.59-4.55-6.05-8.05-10.39-10.5c-4.34-2.45-8.96-3.67-13.85-3.67
			c-4.9,0-9.48,1.23-13.75,3.67c-4.27,2.45-7.7,5.95-10.29,10.5c-2.59,4.55-3.88,9.83-3.88,15.85c0,5.88,1.29,11.09,3.88,15.64
			c2.59,4.55,6.02,8.08,10.29,10.6c4.27,2.52,8.85,3.78,13.75,3.78C380.73,530.09,385.35,528.87,389.69,526.42z"/>
		<path class="st1" d="M467.36,550.98c-5.88-3.01-10.5-7.21-13.85-12.59c-3.36-5.39-5.04-11.51-5.04-18.37
			c0-7,1.85-13.19,5.56-18.58c3.71-5.39,8.78-9.52,15.22-12.39c6.44-2.87,13.64-4.3,21.62-4.3c10.77,0,19.94,1.61,27.5,4.83v-3.57
			c0-5.6-2.17-10.18-6.51-13.75c-4.34-3.57-9.87-5.35-16.58-5.35c-10.22,0-18.47,4.06-24.77,12.17l-19.31-13.85
			c5.18-6.72,11.61-11.82,19.31-15.32c7.69-3.5,16.16-5.25,25.4-5.25c16.09,0,28.37,3.78,36.84,11.34
			c8.47,7.56,12.7,18.61,12.7,33.17v62.97h-27.08v-10.92h-1.68c-7.7,9.52-17.63,14.27-29.81,14.27
			C479.74,555.49,473.24,553.98,467.36,550.98z M506.3,530.62c3.85-2.31,6.82-5.32,8.92-9.03c2.1-3.71,3.15-7.66,3.15-11.86
			c-6.86-3.22-14.06-4.83-21.62-4.83c-6.72,0-11.83,1.4-15.32,4.2c-3.5,2.8-5.25,6.44-5.25,10.92c0,4.2,1.61,7.59,4.83,10.18
			c3.22,2.59,7.27,3.88,12.17,3.88C498.08,534.08,502.45,532.92,506.3,530.62z"/>
		<path class="st1" d="M714.63,401.83h27.5v40.72l-1.68,18.89h1.68c2.94-5.04,7.24-9.1,12.91-12.17c5.67-3.08,11.93-4.62,18.79-4.62
			c13.01,0,22.84,3.85,29.49,11.55c6.64,7.7,9.97,18.47,9.97,32.33v63.6h-27.5v-60.25c0-7-1.75-12.38-5.25-16.16
			c-3.5-3.78-8.26-5.67-14.27-5.67c-7.28,0-13.12,2.94-17.53,8.82c-4.41,5.88-6.61,13.16-6.61,21.83v51.43h-27.5V401.83z"/>
		<path class="st1" d="M850.24,550.98c-5.88-3.01-10.5-7.21-13.85-12.59c-3.36-5.39-5.04-11.51-5.04-18.37
			c0-7,1.85-13.19,5.56-18.58c3.71-5.39,8.78-9.52,15.22-12.39c6.43-2.87,13.64-4.3,21.62-4.3c10.77,0,19.94,1.61,27.5,4.83v-3.57
			c0-5.6-2.17-10.18-6.51-13.75c-4.34-3.57-9.87-5.35-16.58-5.35c-10.22,0-18.47,4.06-24.77,12.17l-19.31-13.85
			c5.18-6.72,11.61-11.82,19.31-15.32c7.7-3.5,16.16-5.25,25.4-5.25c16.09,0,28.37,3.78,36.84,11.34
			c8.47,7.56,12.7,18.61,12.7,33.17v62.97h-27.08v-10.92h-1.68c-7.7,9.52-17.63,14.27-29.81,14.27
			C862.62,555.49,856.12,553.98,850.24,550.98z M889.18,530.62c3.85-2.31,6.82-5.32,8.92-9.03c2.1-3.71,3.15-7.66,3.15-11.86
			c-6.86-3.22-14.06-4.83-21.62-4.83c-6.72,0-11.83,1.4-15.32,4.2c-3.5,2.8-5.25,6.44-5.25,10.92c0,4.2,1.61,7.59,4.83,10.18
			c3.22,2.59,7.27,3.88,12.17,3.88C880.96,534.08,885.33,532.92,889.18,530.62z"/>
	</g>
</g>
<path class="st2" d="M639.34,635.84c-0.09,2.34-0.08,4.69-0.28,7.02c-0.88,10.3-1.48,20.63-2.86,30.86
	c-0.69,5.09-2.81,9.98-4.31,14.96c-0.16,0.54-0.42,1.05-0.71,1.54c-1.08,1.83-1.81,1.97-3.74,1.07c-1.89-0.88-3.08-2.18-3.94-4.14
	c-4.14-9.4-7.33-19.08-9.15-29.21c-0.7-3.89-1.76-7.71-2.65-11.56c-0.21-0.92-0.59-1.28-1.52-0.63c-2.67,1.85-5.41,1.47-7.62-1.05
	c-2.56-2.91-3.72-6.46-3.48-10.19c0.35-5.45,1.04-10.9,1.93-16.29c1.8-10.89,4.34-21.58,8.48-31.89c1.81-4.53,2.71-9.42,3.98-14.16
	c0.16-0.59,0.11-1.24,0.13-1.86c0.03-1.02-0.41-1.53-1.49-1.63c-1.74-0.17-3.47-0.4-5.19-0.74c-1.3-0.26-1.4,0.58-1.56,1.44
	c-0.82,4.45-1.65,8.89-2.46,13.34c-1.1,6.12-2.16,12.24-3.3,18.35c-0.23,1.21-0.6,2.42-1.11,3.54c-0.66,1.43-1.71,2.59-3.45,2.63
	c-1.82,0.05-2.93-1.07-3.65-2.58c-2.26-4.74-4.49-9.5-6.73-14.26c-6.66-14.1-11.42-28.9-15.68-43.85
	c-1.85-6.49-2.72-13.15-1.82-19.96c1.12-8.4,5.66-12.84,14.09-13.6c2.64-0.24,2.68-0.29,2.05-2.85
	c-3.01-12.18-5.68-24.42-7.41-36.87c-1.92-13.82-2.24-27.57,0.41-41.33c1.5-7.82,3.8-15.39,7.58-22.4
	c7.47-13.89,15.25-27.62,24.45-40.47c3.51-4.91,7.52-9.46,11.3-14.17c0.21-0.26,0.44-0.56,0.74-0.69c2.26-1.01,2.37-2.91,2.36-5.04
	c-0.01-1.85,0.38-3.7,0.58-5.56c0.26-2.41,0.54-4.82,0.75-7.24c0.11-1.25,0.26-2.56,1.78-2.63c1.6-0.07,2.07,1.22,2.07,2.56
	c0.01,4.18,0.22,8.39-0.18,12.53c-0.34,3.53,0.44,5.71,3.62,7.86c5.89,3.98,10.42,9.5,14.16,15.57c4.3,6.97,8.66,13.91,12.8,20.98
	c5.97,10.19,10.27,21.06,12.19,32.76c1.05,6.41,2.1,12.83,2.72,19.29c0.76,7.97-0.34,15.9-1.04,23.84
	c-1.19,13.45-4.38,26.52-7.18,39.67c-0.41,1.94-0.22,2.17,1.67,1.75c11.15-2.48,18.09,3.73,20.36,13.3
	c1.86,7.81,1.06,15.64-0.69,23.36c-3.54,15.55-10.12,29.84-18.69,43.21c-3.47,5.41-7.42,10.52-11.25,15.69
	c-1.77,2.39-2.98,2.64-5.77,1.79c-1.53-0.47-2.31-1.47-2.42-3.09c-0.72-11.39-1.48-22.77-2.2-34.16c-0.09-1.38-0.43-1.83-1.98-1.49
	c-2.57,0.56-5.21,0.87-7.84,1.08c-1.43,0.11-1.72,0.55-1.38,1.9c3.98,15.95,7.99,31.9,11.8,47.89c0.9,3.77,1.16,7.7,1.52,11.57
	c0.11,1.18-0.23,2.49-0.68,3.62c-1.15,2.89-3.96,3.49-6.32,1.49c-0.42-0.35-0.84-0.7-1.26-1.05
	C639.7,635.71,639.52,635.77,639.34,635.84z M607.09,389.33c-0.11-0.13-0.22-0.26-0.33-0.38c-0.37-0.43-0.74-0.85-1.11-1.28
	c-1.11-1.31-1.48-1.32-2.35,0.12c-3.63,5.99-7.22,12-10.83,18c-8.5,14.12-11.42,29.77-12.19,45.9c-0.52,10.88,1.14,21.67,3.06,32.34
	c3.13,17.36,7.18,34.52,12.8,51.27c2.13,6.35,0.47,5.39,7.63,6.56c15.36,2.52,30.62,2.38,45.45-3.31c1.52-0.58,2.27-1.35,2.62-2.89
	c1.27-5.62,2.62-11.23,4-16.82c4.15-16.79,8.14-33.62,10.65-50.75c2.48-16.91,0.65-33.53-4.25-49.77
	c-3.05-10.09-8.25-19.28-13.81-28.22c-0.73-1.17-1.32-0.94-2.3-0.3c-2.83,1.84-5.58,3.94-8.65,5.24
	C626.55,399.64,614.65,397.29,607.09,389.33z M642.71,630.91c0.18-0.06,0.36-0.12,0.54-0.18c0.07-0.46,0.21-0.93,0.2-1.38
	c-0.32-8.72-2.89-17.01-4.81-25.43c-0.19-0.85-0.67-1.03-1.62-0.96c-0.86,0.06-1.95-0.34-2.61-0.91c-0.78-0.67-1.19-1.76-1.81-2.63
	c-0.28-0.4-0.7-0.69-1.34-1.29c-0.19,1.35-0.28,2.29-0.45,3.22c-1.14,6.39-2.13,12.81-3.52,19.14c-0.49,2.24-1.81,4.34-3.01,6.36
	c-0.7,1.18-2.03,1.87-3.53,1.42c-1.42-0.42-1.97-1.63-2.23-2.95c-0.19-0.94-0.34-1.9-0.37-2.85c-0.17-6.38-0.29-12.75-0.45-19.13
	c-0.02-0.71-0.19-1.42-0.29-2.13c-0.17-0.02-0.35-0.03-0.52-0.05c-0.43,0.63-0.89,1.25-1.29,1.9c-0.73,1.2-1.37,2.48-2.17,3.64
	c-0.82,1.2-1.91,2.23-3.5,1.93c-1.39-0.26-1.78,0.31-2,1.53c-0.8,4.45-1.68,8.88-2.51,13.32c-1.04,5.5-1.45,10.99,0.55,16.38
	c1.23,3.31,1.99,3.48,4.74,1.24c2.26-1.85,4.26-1.28,5.2,1.5c0.2,0.58,0.33,1.2,0.4,1.82c1.56,13,5.34,25.39,10.36,37.43
	c0.24,0.58,0.64,1.08,1.17,1.96c0.38-0.83,0.63-1.25,0.76-1.71c0.75-2.55,1.7-5.06,2.16-7.66c1.99-11.02,2.89-22.16,3.21-33.35
	c0.09-3.1,0.2-6.21,0.44-9.3c0.13-1.69,1.08-3.02,2.74-3.56c1.55-0.52,2.87,0.14,3.99,1.24
	C641.66,629.93,642.19,630.42,642.71,630.91z M644.48,560.31c0.32-0.5,1.04-1.24,1.33-2.12c1.24-3.8,2.43-7.62,3.49-11.47
	c0.39-1.44-0.63-1.4-1.65-1.09c-8.57,2.57-17.32,3.56-26.26,3.36c-6.6-0.15-13.21,0.18-19.72-1.3c-1.37-0.31-1.22,0.67-0.91,1.45
	c1.52,3.77,3.04,7.53,4.7,11.24c0.24,0.55,1.16,1.08,1.8,1.13c2.98,0.21,5.97,0.2,8.95,0.34c6.93,0.33,13.86,0.75,20.8,1.04
	C639.65,563,642.19,562.52,644.48,560.31z M636.66,598.68c0.18-0.08,0.37-0.15,0.55-0.23c-0.15-0.84-0.25-1.7-0.47-2.52
	c-2.18-8.18-4.4-16.36-6.57-24.55c-0.3-1.12-1.03-1.36-1.99-1.44c-3.15-0.25-6.31-0.49-9.45-0.8c-1.26-0.12-1.96,0.23-1.98,1.59
	c-0.01,0.85-0.09,1.69-0.18,2.53c-0.64,5.96-2.81,11.49-4.62,17.14c-1.19,3.74-1.83,7.67-2.62,11.53c-0.16,0.8,0.02,1.69,0.18,2.52
	c0.07,0.36,0.43,0.8,0.77,0.93c0.2,0.08,0.69-0.3,0.9-0.59c0.33-0.45,0.57-0.98,0.79-1.49c0.95-2.23,1.85-4.49,2.84-6.71
	c0.66-1.48,1.54-2.92,3.42-2.83c1.87,0.09,2.76,1.56,3.12,3.13c0.49,2.07,0.93,4.22,0.91,6.34c-0.06,5.76-0.4,11.51-0.59,17.27
	c-0.02,0.71,0.18,1.42,0.28,2.13c0.2,0.02,0.39,0.03,0.59,0.05c0.31-0.75,0.76-1.47,0.92-2.25c1.08-5.26,2.19-10.51,3.11-15.8
	c0.66-3.78,1-7.62,1.55-11.42c0.18-1.22,0.74-2.31,2.13-2.55c1.47-0.25,2.33,0.69,2.97,1.8c0.65,1.12,1.17,2.32,1.79,3.46
	C635.52,596.87,636.1,597.77,636.66,598.68z"/>
<path class="st1" d="M607.09,389.33c7.56,7.96,19.46,10.32,30.39,5.7c3.08-1.3,5.82-3.4,8.65-5.24c0.98-0.64,1.57-0.87,2.3,0.3
	c5.56,8.94,10.76,18.13,13.81,28.22c4.9,16.23,6.74,32.86,4.25,49.77c-2.52,17.13-6.51,33.96-10.65,50.75
	c-1.38,5.6-2.73,11.2-4,16.82c-0.35,1.55-1.1,2.31-2.62,2.89c-14.83,5.69-30.1,5.83-45.45,3.31c-7.16-1.18-5.5-0.21-7.63-6.56
	c-5.62-16.75-9.67-33.91-12.8-51.27c-1.92-10.67-3.58-21.46-3.06-32.34c0.78-16.13,3.69-31.78,12.19-45.9
	c3.61-6,7.21-12.01,10.83-18c0.87-1.44,1.23-1.43,2.35-0.12c0.37,0.43,0.74,0.86,1.11,1.28
	C606.87,389.07,606.98,389.2,607.09,389.33z M638.13,443.76c-3.7-3.45-8.05-5.38-13.05-5.95c-10.23-1.16-20.77,7.66-22.88,17.8
	c-2.17,10.42,2.66,21.77,11.8,27.57c6.78,4.29,16.18,4.05,22.7-0.65c5.92-4.27,9.07-10.09,9.36-17.4
	C646.4,456.91,644.09,449.64,638.13,443.76z"/>
<path class="st1" d="M642.71,630.91c-0.52-0.49-1.04-0.98-1.55-1.49c-1.12-1.1-2.44-1.75-3.99-1.24c-1.65,0.55-2.6,1.88-2.74,3.56
	c-0.24,3.09-0.35,6.2-0.44,9.3c-0.32,11.19-1.22,22.33-3.21,33.35c-0.47,2.6-1.41,5.11-2.16,7.66c-0.14,0.46-0.39,0.88-0.76,1.71
	c-0.53-0.87-0.93-1.38-1.17-1.96c-5.03-12.04-8.81-24.43-10.36-37.43c-0.07-0.61-0.2-1.23-0.4-1.82c-0.94-2.78-2.94-3.35-5.2-1.5
	c-2.75,2.25-3.52,2.07-4.74-1.24c-2-5.39-1.59-10.88-0.55-16.38c0.84-4.44,1.72-8.87,2.51-13.32c0.22-1.22,0.6-1.79,2-1.53
	c1.59,0.3,2.68-0.74,3.5-1.93c0.8-1.16,1.43-2.43,2.17-3.64c0.4-0.65,0.86-1.27,1.29-1.9c0.17,0.02,0.35,0.03,0.52,0.05
	c0.1,0.71,0.27,1.42,0.29,2.13c0.16,6.38,0.28,12.75,0.45,19.13c0.03,0.95,0.18,1.91,0.37,2.85c0.26,1.33,0.81,2.53,2.23,2.95
	c1.51,0.45,2.83-0.24,3.53-1.42c1.2-2.01,2.52-4.12,3.01-6.36c1.39-6.33,2.38-12.75,3.52-19.14c0.17-0.93,0.26-1.87,0.45-3.22
	c0.63,0.6,1.05,0.9,1.34,1.29c0.62,0.87,1.03,1.96,1.81,2.63c0.67,0.57,1.75,0.98,2.61,0.91c0.95-0.07,1.42,0.11,1.62,0.96
	c1.92,8.42,4.49,16.71,4.81,25.43c0.02,0.46-0.13,0.92-0.2,1.38C643.07,630.79,642.89,630.85,642.71,630.91z"/>
<path class="st1" d="M644.48,560.31c-2.29,2.22-4.84,2.69-7.48,2.58c-6.94-0.29-13.87-0.71-20.8-1.04
	c-2.98-0.14-5.97-0.14-8.95-0.34c-0.64-0.04-1.56-0.58-1.8-1.13c-1.65-3.71-3.18-7.48-4.7-11.24c-0.31-0.77-0.46-1.76,0.91-1.45
	c6.51,1.48,13.13,1.15,19.72,1.3c8.93,0.2,17.69-0.79,26.26-3.36c1.02-0.31,2.04-0.35,1.65,1.09c-1.06,3.85-2.25,7.67-3.49,11.47
	C645.52,559.07,644.81,559.81,644.48,560.31z"/>
<path class="st1" d="M636.66,598.68c-0.55-0.92-1.14-1.81-1.65-2.75c-0.62-1.14-1.14-2.34-1.79-3.46c-0.65-1.12-1.51-2.05-2.97-1.8
	c-1.39,0.24-1.96,1.33-2.13,2.55c-0.56,3.8-0.9,7.64-1.55,11.42c-0.92,5.29-2.03,10.54-3.11,15.8c-0.16,0.78-0.6,1.5-0.92,2.25
	c-0.2-0.02-0.39-0.03-0.59-0.05c-0.1-0.71-0.3-1.43-0.28-2.13c0.19-5.76,0.52-11.51,0.59-17.27c0.02-2.11-0.42-4.26-0.91-6.34
	c-0.37-1.57-1.25-3.04-3.12-3.13c-1.88-0.09-2.76,1.35-3.42,2.83c-0.99,2.22-1.89,4.48-2.84,6.71c-0.22,0.52-0.46,1.05-0.79,1.49
	c-0.21,0.29-0.7,0.67-0.9,0.59c-0.34-0.13-0.7-0.57-0.77-0.93c-0.16-0.82-0.35-1.72-0.18-2.52c0.79-3.86,1.43-7.79,2.62-11.53
	c1.8-5.65,3.97-11.19,4.62-17.14c0.09-0.84,0.17-1.69,0.18-2.53c0.02-1.36,0.72-1.72,1.98-1.59c3.15,0.31,6.3,0.55,9.45,0.8
	c0.97,0.08,1.7,0.32,1.99,1.44c2.17,8.19,4.38,16.36,6.57,24.55c0.22,0.82,0.32,1.68,0.47,2.52
	C637.02,598.53,636.84,598.61,636.66,598.68z"/>
<g>
	<path class="st2" d="M601.16,332.19c-1.53-2.68-3.24-5.27-4.49-8.07c-0.52-1.18-0.41-2.94,0.05-4.2c0.78-2.11,2.9-2.44,4.49-0.82
		c1.09,1.11,2.08,2.4,2.8,3.78c0.98,1.89,1.88,3.89,2.38,5.95c0.32,1.33,0.01,2.88-0.31,4.26c-0.08,0.36-1.36,0.79-1.91,0.62
		c-0.98-0.3-1.83-1.04-2.73-1.6C601.34,332.14,601.25,332.16,601.16,332.19z"/>
	<path class="st2" d="M648.97,330.38c-0.27,0.29-0.54,0.58-0.82,0.86c-1.07,1.03-2.25,1.94-3.72,0.88c-1.38-0.99-1.6-2.51-0.92-3.95
		c1.06-2.24,2.31-4.39,3.52-6.56c0.36-0.64,0.81-1.23,1.28-1.79c1.3-1.57,2.9-1.98,4.32-1.14c1.61,0.96,2.2,2.67,1.16,4.57
		c-1.37,2.52-3.02,4.88-4.55,7.31C649.15,330.5,649.06,330.44,648.97,330.38z"/>
	<path class="st2" d="M652.84,344.59c1.15-0.61,1.95-1.19,2.84-1.46c2.38-0.72,4.78-1.34,7.2-1.94c1.4-0.35,2.75-0.3,3.44,1.29
		c0.69,1.59,0.19,3.53-1.32,4.31c-3.21,1.64-6.66,2.6-10.27,2.46c-0.84-0.03-2.02-1-2.34-1.81
		C652.07,346.64,652.66,345.49,652.84,344.59z"/>
	<path class="st2" d="M627.73,322.89c-0.78,0.24-1.86,0.94-2.43,0.65c-0.72-0.37-1.43-1.54-1.44-2.37
		c-0.05-3.55,0.12-7.1,0.31-10.65c0.07-1.23,0.84-2.12,2.12-2.31c1.34-0.2,2.35,0.43,2.86,1.63c0.32,0.76,0.57,1.64,0.52,2.44
		c-0.19,2.76-0.47,5.51-0.84,8.25C628.74,321.25,628.2,321.92,627.73,322.89z"/>
	<path class="st2" d="M584.29,341.01c1.29,0.14,2.28,0.1,3.17,0.38c2.37,0.73,4.72,1.57,7.05,2.42c1.36,0.5,2.44,1.29,2.13,3
		c-0.32,1.71-1.82,3.04-3.5,2.83c-3.58-0.43-6.98-1.57-9.89-3.71c-0.68-0.5-1.12-1.96-0.93-2.81
		C582.51,342.28,583.64,341.66,584.29,341.01z"/>
</g>
<ellipse class="st1" cx="620.73" cy="461.8" rx="25.36" ry="34.11"/>
<g>
	<path class="st2" d="M647.43,463.71l-8.35,22.1c-15.74,1.53-27.86,8.04-36.37,19.53c0.79-9.08,3.97-16.27,9.54-21.57
		c-8.46-4.38-12.69-10.08-12.69-17.1c0-3.86,1.67-8.7,5-14.53c8.29-14.56,18.17-21.84,29.66-21.84c7.01,0,10.52,1.4,10.52,4.21
		c0,0.53-0.05,0.94-0.16,1.25c-0.11,0.31-0.6,1.54-1.48,3.68l-5.52,13.88c-2.68-1.14-5.5-1.71-8.48-1.71
		c-5.83,0-11.09,2.32-15.79,6.97l0.99,0.66l4.8,3.68c3.51,2.15,8.33,3.22,14.47,3.22C638.46,466.15,643.09,465.34,647.43,463.71z"/>
</g>
<g>
	<g>
		<path class="st1" d="M90.56,648.46c-2.48-1.36-4.48-3.32-5.99-5.87c-1.51-2.55-2.27-5.51-2.27-8.87c0-3.84,0.94-7.4,2.83-10.66
			s4.52-5.87,7.91-7.8c3.38-1.94,7.23-2.91,11.55-2.91c2.65,0,5.12,0.5,7.39,1.5c2.28,1,4,2.37,5.15,4.11l-3.52,2.96
			c-0.85-1.36-2.16-2.44-3.93-3.24c-1.77-0.8-3.69-1.2-5.76-1.2c-3.2,0-6.1,0.75-8.72,2.24s-4.68,3.54-6.2,6.15
			s-2.27,5.48-2.27,8.64c0,2.65,0.56,4.95,1.68,6.88c1.12,1.94,2.63,3.42,4.54,4.44c1.9,1.02,3.98,1.53,6.22,1.53
			c2.28,0,4.36-0.4,6.25-1.2c1.89-0.8,3.53-1.93,4.92-3.39c1.87-1.9,3.2-4.4,3.98-7.5h-13.21l0.66-4.03h17.6
			c0,0.68-0.09,1.56-0.26,2.65c-0.65,4.63-2.53,8.52-5.66,11.68c-3.74,3.94-8.69,5.92-14.84,5.92
			C95.73,650.5,93.04,649.82,90.56,648.46z"/>
		<path class="st1" d="M127.36,648.97c-1.72-1.02-3.04-2.41-3.95-4.18c-0.92-1.77-1.38-3.72-1.38-5.86c0-2.62,0.6-5.11,1.81-7.47
			s2.91-4.27,5.1-5.71c2.19-1.45,4.72-2.17,7.57-2.17c2.24,0,4.16,0.47,5.74,1.4c1.58,0.94,2.78,2.2,3.6,3.8
			c0.82,1.6,1.22,3.38,1.22,5.36c0,1.39-0.14,2.63-0.41,3.72h-20.14c-0.07,0.75-0.1,1.28-0.1,1.58c0,1.5,0.34,2.78,1.02,3.85
			c0.68,1.07,1.57,1.89,2.68,2.45c1.1,0.56,2.29,0.84,3.54,0.84c1.8,0,3.4-0.42,4.79-1.25s2.55-2,3.47-3.49l3.37,1.89
			c-1.29,2.18-2.97,3.85-5.02,5.02c-2.06,1.17-4.34,1.76-6.86,1.76C131.09,650.5,129.07,649.99,127.36,648.97z M142.73,634.23v-0.66
			c0-1.67-0.59-3.09-1.76-4.28c-1.17-1.19-2.81-1.78-4.92-1.78c-2.11,0-3.94,0.62-5.51,1.86c-1.56,1.24-2.65,2.86-3.26,4.87H142.73z
			"/>
		<path class="st1" d="M154.16,648.88c-1.12-1.07-1.68-2.46-1.68-4.16c0-0.8,0.08-1.65,0.25-2.55l2.4-13.87h-4.49l0.71-3.93h4.44
			l1.33-7.55h4.33l-1.33,7.55h6.22l-0.71,3.93h-6.22l-2.29,13.41c-0.17,0.97-0.25,1.65-0.25,2.03c0,0.84,0.25,1.5,0.74,1.98
			c0.49,0.49,1.2,0.73,2.12,0.73c1.05,0,2.04-0.25,2.96-0.76l-0.71,4.23c-0.61,0.2-1.17,0.35-1.66,0.43
			c-0.49,0.08-1.11,0.13-1.86,0.13C156.71,650.5,155.28,649.96,154.16,648.88z"/>
		<path class="st1" d="M196.59,645.91c-0.92,1.39-2.13,2.51-3.65,3.34s-3.24,1.25-5.18,1.25c-2.48,0-4.46-0.71-5.92-2.12
			c-1.46-1.41-2.19-3.27-2.19-5.58c0-1.12,0.12-2.33,0.36-3.62l2.6-14.79h4.33l-2.7,15.2c-0.17,0.71-0.25,1.46-0.25,2.24
			c0,1.53,0.48,2.7,1.43,3.52s2.26,1.22,3.93,1.22c2.11,0,3.96-0.79,5.56-2.37c1.6-1.58,2.6-3.53,3.01-5.84l2.45-13.97h4.33
			l-4.44,25.3h-4.13l0.66-3.77H196.59z"/>
		<path class="st1" d="M211.12,624.38h4.08l-0.66,3.72h0.2c0.99-1.36,2.24-2.46,3.75-3.29c1.51-0.83,3.31-1.25,5.38-1.25
			c2.01,0,3.8,0.48,5.38,1.43s2.82,2.31,3.72,4.08c0.9,1.77,1.35,3.82,1.35,6.17c0,2.65-0.64,5.15-1.91,7.5
			c-1.28,2.35-3.03,4.22-5.25,5.63c-2.23,1.41-4.72,2.12-7.47,2.12c-1.8,0-3.42-0.43-4.84-1.3c-1.43-0.87-2.5-1.96-3.21-3.29h-0.2
			l-0.41,3.52l-2.04,11.27h-4.28L211.12,624.38z M225.02,645.09c1.51-0.99,2.7-2.32,3.57-4c0.87-1.68,1.3-3.53,1.3-5.53
			c0-2.52-0.65-4.49-1.94-5.92s-3.04-2.14-5.25-2.14c-1.84,0-3.51,0.53-5.02,1.58c-1.51,1.05-2.7,2.45-3.57,4.18
			c-0.87,1.73-1.3,3.59-1.3,5.56c0,2.42,0.68,4.31,2.04,5.69c1.36,1.38,3.08,2.07,5.15,2.07
			C221.83,646.57,223.51,646.08,225.02,645.09z"/>
		<path class="st1" d="M238.66,649.68c-0.44-0.17-0.87-0.51-1.28-1.02c-0.41-0.51-0.61-1.16-0.61-1.94c0-0.92,0.31-1.68,0.94-2.29
			c0.63-0.61,1.37-0.92,2.22-0.92c0.92,0,1.7,0.31,2.35,0.92c0.65,0.61,0.97,1.38,0.97,2.29c0,0.51-0.15,1-0.46,1.48
			c-0.31,0.48-0.82,1.16-1.53,2.04l-4.23,5.05l-1.79-1.48L238.66,649.68z"/>
		<path class="st1" d="M263.96,649.5c-1.29-0.66-2.31-1.58-3.06-2.75c-0.75-1.17-1.12-2.51-1.12-4c0-1.87,0.51-3.51,1.53-4.92
			c1.02-1.41,2.44-2.5,4.26-3.26c1.82-0.77,3.9-1.15,6.25-1.15c2.55,0,4.95,0.56,7.19,1.68l0.26-1.33c0.1-0.37,0.15-0.78,0.15-1.22
			c0-1.53-0.57-2.77-1.71-3.72c-1.14-0.95-2.61-1.43-4.41-1.43c-2.72,0-5.02,1.16-6.88,3.47l-3.37-2.4
			c1.16-1.56,2.67-2.77,4.54-3.62c1.87-0.85,3.93-1.28,6.17-1.28c3.09,0,5.5,0.75,7.22,2.24c1.72,1.5,2.58,3.52,2.58,6.07
			c0,0.68-0.08,1.56-0.25,2.65l-2.7,15.15h-4.13l0.61-3.67h-0.2c-0.92,1.36-2.12,2.45-3.6,3.26c-1.48,0.82-3.14,1.22-4.97,1.22
			C266.69,650.5,265.25,650.16,263.96,649.5z M273.37,645.63c1.31-0.7,2.41-1.66,3.31-2.88c0.9-1.22,1.47-2.57,1.71-4.03
			c-1.9-1.22-4.2-1.84-6.88-1.84c-2.01,0-3.72,0.48-5.13,1.45c-1.41,0.97-2.12,2.32-2.12,4.05c0,1.33,0.48,2.37,1.43,3.14
			c0.95,0.76,2.12,1.15,3.52,1.15C270.67,646.67,272.06,646.32,273.37,645.63z"/>
		<path class="st1" d="M294.56,628.16c0.92-1.36,2.14-2.46,3.67-3.31c1.53-0.85,3.26-1.28,5.2-1.28c2.45,0,4.41,0.71,5.89,2.12
			c1.48,1.41,2.22,3.27,2.22,5.58c0,1.16-0.12,2.35-0.36,3.57l-2.6,14.84h-4.33l2.7-15.2c0.14-0.78,0.2-1.53,0.2-2.24
			c0-1.53-0.48-2.7-1.43-3.52c-0.95-0.82-2.24-1.22-3.88-1.22c-2.11,0-3.96,0.79-5.56,2.37c-1.6,1.58-2.6,3.53-3.01,5.84l-2.5,13.97
			h-4.28l4.44-25.3h4.08l-0.66,3.77H294.56z"/>
		<path class="st1" d="M320.34,649.07c-1.58-0.95-2.82-2.31-3.72-4.08c-0.9-1.77-1.35-3.82-1.35-6.17c0-2.65,0.64-5.15,1.91-7.5
			c1.27-2.35,3.03-4.22,5.25-5.63c2.23-1.41,4.72-2.12,7.47-2.12c1.8,0,3.41,0.43,4.82,1.3c1.41,0.87,2.47,1.96,3.19,3.29h0.2
			l0.46-3.52l2.04-11.47h4.28l-6.43,36.52h-4.13l0.66-3.72h-0.2c-0.95,1.36-2.19,2.46-3.72,3.29c-1.53,0.83-3.33,1.25-5.41,1.25
			C323.69,650.5,321.92,650.02,320.34,649.07z M331.89,645.01c1.53-1.04,2.73-2.42,3.6-4.16c0.87-1.73,1.3-3.59,1.3-5.56
			c0-2.45-0.67-4.36-2.01-5.74c-1.34-1.38-3.07-2.07-5.18-2.07c-1.84,0-3.52,0.49-5.05,1.48c-1.53,0.99-2.73,2.32-3.6,4
			c-0.87,1.68-1.3,3.53-1.3,5.53c0,2.52,0.64,4.49,1.94,5.92c1.29,1.43,3.04,2.14,5.25,2.14
			C328.67,646.57,330.36,646.05,331.89,645.01z"/>
		<path class="st1" d="M359.04,648.51c-1.72-1.33-2.86-3.04-3.44-5.15l4.13-1.63c0.34,1.56,1.1,2.78,2.3,3.65
			c1.19,0.87,2.57,1.3,4.13,1.3c1.67,0,3.03-0.37,4.08-1.1c1.05-0.73,1.58-1.67,1.58-2.83c0-1.02-0.33-1.84-1-2.47
			s-1.74-1.15-3.24-1.56l-2.75-0.71c-4.28-1.19-6.43-3.43-6.43-6.73c0-1.46,0.45-2.78,1.35-3.95c0.9-1.17,2.12-2.09,3.67-2.75
			c1.55-0.66,3.25-1,5.13-1c2.31,0,4.3,0.54,5.97,1.61c1.67,1.07,2.81,2.51,3.42,4.31l-4.08,1.58c-0.41-1.09-1.1-1.97-2.07-2.65
			c-0.97-0.68-2.15-1.02-3.54-1.02c-1.6,0-2.89,0.31-3.88,0.94c-0.99,0.63-1.48,1.49-1.48,2.58c0,0.75,0.31,1.42,0.94,2.01
			c0.63,0.6,1.55,1.06,2.78,1.4l3.26,0.87c2.04,0.58,3.63,1.46,4.77,2.65c1.14,1.19,1.71,2.65,1.71,4.39c0,2.48-0.97,4.48-2.91,5.99
			c-1.94,1.51-4.51,2.27-7.7,2.27C363,650.5,360.76,649.83,359.04,648.51z"/>
		<path class="st1" d="M384.98,648.88c-1.12-1.07-1.68-2.46-1.68-4.16c0-0.8,0.08-1.65,0.25-2.55l2.4-13.87h-4.49l0.71-3.93h4.44
			l1.33-7.55h4.33l-1.33,7.55h6.22l-0.71,3.93h-6.22l-2.29,13.41c-0.17,0.97-0.25,1.65-0.25,2.03c0,0.84,0.25,1.5,0.74,1.98
			c0.49,0.49,1.2,0.73,2.12,0.73c1.05,0,2.04-0.25,2.96-0.76l-0.71,4.23c-0.61,0.2-1.16,0.35-1.66,0.43s-1.11,0.13-1.86,0.13
			C387.53,650.5,386.1,649.96,384.98,648.88z"/>
		<path class="st1" d="M401.45,649.5c-1.29-0.66-2.31-1.58-3.06-2.75s-1.12-2.51-1.12-4c0-1.87,0.51-3.51,1.53-4.92
			c1.02-1.41,2.44-2.5,4.26-3.26c1.82-0.77,3.9-1.15,6.25-1.15c2.55,0,4.95,0.56,7.19,1.68l0.25-1.33c0.1-0.37,0.15-0.78,0.15-1.22
			c0-1.53-0.57-2.77-1.71-3.72c-1.14-0.95-2.61-1.43-4.41-1.43c-2.72,0-5.02,1.16-6.89,3.47l-3.37-2.4
			c1.16-1.56,2.67-2.77,4.54-3.62c1.87-0.85,3.93-1.28,6.17-1.28c3.09,0,5.5,0.75,7.22,2.24c1.72,1.5,2.58,3.52,2.58,6.07
			c0,0.68-0.09,1.56-0.25,2.65l-2.7,15.15h-4.13l0.61-3.67h-0.2c-0.92,1.36-2.12,2.45-3.59,3.26c-1.48,0.82-3.14,1.22-4.97,1.22
			C404.19,650.5,402.74,650.16,401.45,649.5z M410.86,645.63c1.31-0.7,2.41-1.66,3.32-2.88c0.9-1.22,1.47-2.57,1.71-4.03
			c-1.9-1.22-4.2-1.84-6.88-1.84c-2.01,0-3.71,0.48-5.13,1.45s-2.12,2.32-2.12,4.05c0,1.33,0.48,2.37,1.43,3.14
			c0.95,0.76,2.13,1.15,3.52,1.15C408.17,646.67,409.55,646.32,410.86,645.63z"/>
		<path class="st1" d="M428.34,624.79h4.08l-0.71,4.13h0.2c0.78-1.53,1.96-2.72,3.52-3.57c1.56-0.85,3.3-1.27,5.2-1.27
			c0.48,0,1.05,0.03,1.73,0.1l-0.82,4.49c-0.44-0.14-1.14-0.2-2.09-0.2c-1.36,0-2.67,0.33-3.93,0.99s-2.32,1.61-3.19,2.83
			c-0.87,1.22-1.44,2.6-1.71,4.13l-2.45,13.67h-4.28L428.34,624.79z M448.47,648.88c-1.12-1.07-1.68-2.46-1.68-4.16
			c0-0.8,0.08-1.65,0.26-2.55l2.4-13.87h-4.49l0.71-3.93h4.44l1.33-7.55h4.33l-1.33,7.55h6.22l-0.71,3.93h-6.22l-2.29,13.41
			c-0.17,0.97-0.25,1.65-0.25,2.03c0,0.84,0.25,1.5,0.74,1.98c0.49,0.49,1.2,0.73,2.12,0.73c1.05,0,2.04-0.25,2.96-0.76l-0.71,4.23
			c-0.61,0.2-1.17,0.35-1.66,0.43c-0.49,0.08-1.11,0.13-1.86,0.13C451.02,650.5,449.59,649.96,448.47,648.88z"/>
		<path class="st1" d="M477.49,624.38h4.33l-4.44,25.3h-4.33L477.49,624.38z M478.97,618.01c-0.61-0.61-0.92-1.34-0.92-2.19
			c0-0.85,0.31-1.57,0.92-2.17c0.61-0.59,1.34-0.89,2.19-0.89s1.58,0.3,2.19,0.89s0.92,1.32,0.92,2.17c0,0.85-0.3,1.58-0.89,2.19
			s-1.33,0.92-2.22,0.92C480.31,618.93,479.58,618.62,478.97,618.01z"/>
		<path class="st1" d="M489.32,648.88c-1.12-1.07-1.68-2.46-1.68-4.16c0-0.8,0.08-1.65,0.25-2.55l2.4-13.87h-4.49l0.71-3.93h4.44
			l1.33-7.55h4.33l-1.33,7.55h6.22l-0.71,3.93h-6.22l-2.29,13.41c-0.17,0.97-0.25,1.65-0.25,2.03c0,0.84,0.25,1.5,0.74,1.98
			c0.49,0.49,1.2,0.73,2.12,0.73c1.05,0,2.04-0.25,2.96-0.76l-0.71,4.23c-0.61,0.2-1.16,0.35-1.66,0.43s-1.11,0.13-1.86,0.13
			C491.87,650.5,490.44,649.96,489.32,648.88z"/>
		<path class="st1" d="M531.75,645.91c-0.92,1.39-2.13,2.51-3.65,3.34s-3.24,1.25-5.18,1.25c-2.48,0-4.45-0.71-5.92-2.12
			c-1.46-1.41-2.19-3.27-2.19-5.58c0-1.12,0.12-2.33,0.36-3.62l2.6-14.79h4.33l-2.7,15.2c-0.17,0.71-0.25,1.46-0.25,2.24
			c0,1.53,0.48,2.7,1.43,3.52c0.95,0.82,2.26,1.22,3.93,1.22c2.11,0,3.96-0.79,5.56-2.37c1.6-1.58,2.6-3.53,3.01-5.84l2.45-13.97
			h4.33l-4.44,25.3h-4.13l0.66-3.77H531.75z"/>
		<path class="st1" d="M546.29,624.38h4.08l-0.66,3.72h0.2c0.99-1.36,2.24-2.46,3.75-3.29s3.31-1.25,5.38-1.25
			c2.01,0,3.8,0.48,5.38,1.43s2.82,2.31,3.72,4.08c0.9,1.77,1.35,3.82,1.35,6.17c0,2.65-0.64,5.15-1.91,7.5
			c-1.27,2.35-3.03,4.22-5.25,5.63c-2.23,1.41-4.72,2.12-7.47,2.12c-1.8,0-3.42-0.43-4.85-1.3c-1.43-0.87-2.5-1.96-3.21-3.29h-0.2
			l-0.41,3.52l-2.04,11.27h-4.28L546.29,624.38z M560.19,645.09c1.51-0.99,2.7-2.32,3.57-4c0.87-1.68,1.3-3.53,1.3-5.53
			c0-2.52-0.65-4.49-1.94-5.92c-1.29-1.43-3.04-2.14-5.25-2.14c-1.84,0-3.51,0.53-5.02,1.58c-1.51,1.05-2.7,2.45-3.57,4.18
			c-0.87,1.73-1.3,3.59-1.3,5.56c0,2.42,0.68,4.31,2.04,5.69c1.36,1.38,3.08,2.07,5.15,2.07C557,646.57,558.67,646.08,560.19,645.09
			z"/>
		<path class="st1" d="M572.68,648.78c-0.63-0.6-0.94-1.34-0.94-2.21c0-0.84,0.31-1.56,0.94-2.16c0.63-0.6,1.38-0.9,2.27-0.9
			c0.92,0,1.69,0.3,2.32,0.9c0.63,0.6,0.94,1.32,0.94,2.16c0,0.88-0.32,1.61-0.94,2.21c-0.63,0.6-1.4,0.9-2.32,0.9
			C574.07,649.68,573.31,649.38,572.68,648.78z"/>
	</g>
</g>
</svg>
